<svg xmlns="http://www.w3.org/2000/svg" viewBox="0 0 129.78 70.64"><path d="M0,35.17c0-4,.07-8,0-12a10.62,10.62,0,0,1,2.94-7.51A25.56,25.56,0,0,1,10,10.29,70.75,70.75,0,0,1,27.13,4,131.39,131.39,0,0,1,43,1.18C46.43.77,49.86.43,53.31.25c1.6-.08,3.2-.19,4.8-.25,1.15,0,1.58.41,1.59,1.54a21.13,21.13,0,0,0,.1,2.87A5.17,5.17,0,0,0,70,4.22c.1-.94.06-1.87.08-2.8S70.57,0,71.54,0c2.84.08,5.69.27,8.53.5q4,.31,7.89.83A123.71,123.71,0,0,1,107,5.2a63.76,63.76,0,0,1,12.52,5,24.51,24.51,0,0,1,7.89,6.19,9.61,9.61,0,0,1,2.32,6.78c-.56,7.41-.11,14.83-.24,22.24,0,.66.2,1.32.24,2a10.1,10.1,0,0,1-3,7.56,29.3,29.3,0,0,1-10,6.82A89.89,89.89,0,0,1,95.9,68c-4.24.8-8.52,1.39-12.81,1.82-2.7.27-5.41.44-8.12.6-5,.3-10.11.31-15.17.2s-9.95-.46-14.91-1a127.73,127.73,0,0,1-22.37-4.31c-5.62-1.67-11.06-3.73-15.9-7.13a17.63,17.63,0,0,1-5.23-5.37A9.2,9.2,0,0,1,0,47.88C0,43.64,0,39.41,0,35.17Zm21.13,5.67c0,.87,0,1.74,0,2.61a5.15,5.15,0,0,0,10.22.88,16.86,16.86,0,0,0,.1-2.93c0-1.25.58-1.76,1.82-1.53q5.2,1,10.48,1.63,8,1,16,1.15a183.92,183.92,0,0,0,19.64-.5c3.83-.32,7.66-.72,11.47-1.32,1.84-.3,3.68-.64,5.52-1,1.28-.22,1.87.28,1.88,1.55,0,.63,0,1.25,0,1.87a5.16,5.16,0,1,0,10.31.07c0-1.74,0-3.48,0-5.21,0-1.13.21-1.41,1.3-1.79a47.92,47.92,0,0,0,11.59-5.55,15.48,15.48,0,0,0,4.58-4.61,6.45,6.45,0,0,0,1-5,9.16,9.16,0,0,0-2.41-4.17,25.38,25.38,0,0,0-7.58-5.27C108.1,7.43,98.49,5.42,88.71,4c-2.51-.36-5-.63-7.55-.85-2.69-.23-5.37-.44-8.07-.53-.36,0-.46.12-.45.46a7.26,7.26,0,0,1-.09,1.47A7.72,7.72,0,0,1,60.64,10a7.56,7.56,0,0,1-3.48-6.75c0-.49-.09-.61-.62-.59-4,.17-8.08.51-12.11,1A133.54,133.54,0,0,0,29.19,6.17,75.85,75.85,0,0,0,13,11.63a26,26,0,0,0-8.06,5.63c-3,3.23-3.14,6.66-.54,10a19.06,19.06,0,0,0,5.16,4.39,50.2,50.2,0,0,0,10.36,4.73,1.46,1.46,0,0,1,1.23,1.72Z" fill="#feac5e"/><path d="M21.15,40.84V38.1a1.46,1.46,0,0,0-1.23-1.72A50.2,50.2,0,0,1,9.56,31.65,19.06,19.06,0,0,1,4.4,27.26c-2.6-3.34-2.42-6.77.54-10A26,26,0,0,1,13,11.63,75.85,75.85,0,0,1,29.19,6.17,133.54,133.54,0,0,1,44.43,3.6c4-.45,8.06-.79,12.11-1,.53,0,.62.1.62.59A7.56,7.56,0,0,0,60.64,10,7.72,7.72,0,0,0,72.55,4.57a7.26,7.26,0,0,0,.09-1.47c0-.34.09-.47.45-.46,2.7.09,5.38.3,8.07.53,2.52.22,5,.49,7.55.85,9.78,1.4,19.39,3.41,28.36,7.76a25.38,25.38,0,0,1,7.58,5.27,9.16,9.16,0,0,1,2.41,4.17,6.45,6.45,0,0,1-1,5,15.48,15.48,0,0,1-4.58,4.61,47.92,47.92,0,0,1-11.59,5.55c-1.09.38-1.3.66-1.3,1.79,0,1.73,0,3.47,0,5.21a5.16,5.16,0,1,1-10.31-.07c0-.62,0-1.24,0-1.87,0-1.27-.6-1.77-1.88-1.55-1.84.32-3.68.66-5.52,1-3.81.6-7.64,1-11.47,1.32a183.92,183.92,0,0,1-19.64.5q-8.05-.18-16-1.15-5.27-.63-10.48-1.63c-1.24-.23-1.8.28-1.82,1.53a16.86,16.86,0,0,1-.1,2.93,5.15,5.15,0,0,1-10.22-.88C21.14,42.58,21.15,41.71,21.15,40.84Z" fill="#511313"/></svg>