<svg xmlns="http://www.w3.org/2000/svg" viewBox="0 0 221.6 153.39"><path d="M.16,125.7v-.76c0-.92-.14-1.83-.14-2.75q0-17.28,0-34.56a12.5,12.5,0,0,1,.14-2.21,6.4,6.4,0,0,1,2.49-3.9,3.87,3.87,0,0,0,1.87-1.1,21.48,21.48,0,0,1,2.54-.31H74.44a4.54,4.54,0,0,1,4.76,4.7c-.06,3.38,0,6.76,0,10.15a4.23,4.23,0,0,0,.14,1.23c0,.27,0,.55,0,.82-.86,5.68,2.07,10.88,8.45,11.06q0,17.33,0,34.65l-.31,0H19.21a4.16,4.16,0,0,0-1.6-.22,28.58,28.58,0,0,1-5-1.33c-.1-.18-.28-.17-.46-.18l-1.94-1.1a21.55,21.55,0,0,1-5.39-4.45c-.74-.81-1.33-1.73-2-2.57a.36.36,0,0,0-.15-.32,1.2,1.2,0,0,0-.22-.63A6.88,6.88,0,0,1,1.2,129a1.22,1.22,0,0,0-.29-.79l-.6-1.73a.77.77,0,0,0,0-.15C.28,126.12.37,125.88.16,125.7Zm20-38.56h-9a13,13,0,0,0-2.41.13c-1.14.2-1.49.53-1.49,1.66v21.23a8.57,8.57,0,0,1-.07,1A1.89,1.89,0,0,0,8,113.24a1.57,1.57,0,0,0,1.86-.32c.9-.85,1.77-1.75,2.64-2.63l4.23-4.22,5.76-5.77c1.79-1.79,3.58-3.58,5.36-5.39s3.52-3.36,5.11-5.2a1.48,1.48,0,0,0,.23-1.47A1.3,1.3,0,0,0,32,87.32a20.71,20.71,0,0,0-2.24-.19C26.57,87.16,23.35,87.14,20.12,87.14Z" fill="#c0c7cf"/><path d="M96.53,82.13a1.59,1.59,0,0,0,.89-1,4.29,4.29,0,0,1,2.83-1.06h60.39c.18,0,.36,0,.54,0,0,.12,0,.29.09.36,1.09,1.09,2.21,2.17,3.3,3.26,2.2,2.21,4.37,4.45,6.61,6.63,1.29,1.25,2.48,2.62,3.88,3.76,0,9.42,0,18.83,0,28.25a19.84,19.84,0,0,1-3.88,11.87A20.42,20.42,0,0,1,161,141.7a34.9,34.9,0,0,1-5,1H88.69l-1.09,0v-.06q0-17.32,0-34.65a8.6,8.6,0,0,0,3.24-.69,8,8,0,0,0,5-5.88,10.06,10.06,0,0,0,.1-4.37c0-3.09,0-6.19,0-9.28a15.67,15.67,0,0,1,.43-5.24Z" fill="#a8b3b9"/><path d="M19.17,148.05c0-1.77,0-3.54,0-5.3H87.46l.31,0v10.63l-2.11,0q-30.63,0-61.28,0a4.89,4.89,0,0,1-4.45-2.21A5.42,5.42,0,0,1,19.17,148.05Z" fill="#8a96a2"/><path d="M20.12,87.14c3.23,0,6.45,0,9.68,0a20.71,20.71,0,0,1,2.24.19,1.3,1.3,0,0,1,1.16.92A1.48,1.48,0,0,1,33,89.71c-1.59,1.84-3.4,3.48-5.11,5.2s-3.57,3.6-5.36,5.39l-5.76,5.77-4.23,4.22c-.87.88-1.74,1.78-2.64,2.63a1.57,1.57,0,0,1-1.86.32,1.89,1.89,0,0,1-.91-2.06,8.57,8.57,0,0,0,.07-1V88.94c0-1.13.35-1.46,1.49-1.66a13,13,0,0,1,2.41-.13Z" fill="#d3dbde"/><path d="M96.05,97.14a10.07,10.07,0,0,1-.1,4.37,8,8,0,0,1-5,5.87,8.38,8.38,0,0,1-3.24.7c-6.38-.18-9.31-5.38-8.45-11.06a7.88,7.88,0,0,0,3,5.18,3,3,0,0,0,1.29.86,3.21,3.21,0,0,0,1.53.7,1.62,1.62,0,0,0,1,.24.27.27,0,0,0,.32.09l1.08.07h.47a6.27,6.27,0,0,0,2.19-.34,4.74,4.74,0,0,0,2.07-1,3.34,3.34,0,0,0,.92-.8,5.54,5.54,0,0,0,2.45-3.33c.12-.42.24-.83.37-1.24C96,97.35,96,97.25,96.05,97.14Z" fill="#8a96a2"/><path d="M156.11,142.75a18,18,0,0,0,.07,2.65c-.12,1.32.07,2.65-.13,4a4.8,4.8,0,0,1-4.45,4h-63l-.78,0V142.79l1.09,0Z" fill="#768190"/><path d="M166.33,80.1c2.41,2.43,4.84,4.84,7.22,7.29.59.62,1.4,1.07,1.7,2,0,1.61,0,3.22,0,4.83-1.4-1.14-2.59-2.51-3.88-3.76-2.24-2.18-4.4-4.42-6.61-6.63-1.09-1.09-2.21-2.17-3.3-3.26-.07-.08-.06-.24-.09-.36Z" fill="#8a96a2"/><path d="M152.94,83.74q-30-20-60-40c-1.75-1.15-2.12-2.55-2.12-4.66,0-6.35,4-9.95,8.43-13.32,2.41-1.81,4.21-1.74,6.57.07q15.3,11.76,30.54,23.54l28.82,22.16L195.52,95c7.83,6,15.7,12,23.54,18.06,3.08,2.38,3.24,3.44,1.12,6.75l-1.08,1.51c-2.71,3.69-3.76,3.85-7.47,1.38q-24.39-16.22-48.81-32.41c-3.29-2.19-6.42-4.6-9.64-6.91ZM131,67.07c5.16,3.44,10.39,6.83,15.52,10.39A39.44,39.44,0,0,0,167,84.59c.56,0,1.12.12,1.69.18l0,.56-10.83-.39,19,12.63,6.52-9.09L175,85.15l0-.2,5.85,1.15c-7.13-7.12-16.26-10.43-25.31-14l.15-.52,11,3.46c-4.29-3.32-8.39-6.41-12.39-9.61a38.69,38.69,0,0,0-18.5-8.29A75.72,75.72,0,0,1,127,54.71l.12-.36,15.52,2.41.17-.45c-5.62-4-10.94-8.59-16.94-11.93s-12.59-5.41-18-7.68l10.73,1.59A35.76,35.76,0,0,0,106,30.44c-1.56,5.86-5.44,9.76-10.68,12.67a22.68,22.68,0,0,0,9.36,2.81c2.69.33,5.33.9,8,1.41,3.26.6,6.51,1.25,9.77,1.87.49.09,1,.14,1.85.22-7.59,2-14.4-2.31-22-1.44,5.5,3.64,10.75,6.92,15.81,10.5a45.19,45.19,0,0,0,23.35,8.45,3.67,3.67,0,0,1,.84.25l-.08.63Zm65.76,43.8.33-.46c4.56,3.27,9.09,6.62,13.7,9.83,4.79,3.29,5.51,3.05,8.38-2.09l.1-.15c.74-1.24.63-2.12-.67-3.07-4.62-3.42-9.13-7-13.68-10.49-6.17-4.76-12.33-9.5-18.47-14.29-.89-.63-1.46-.74-2.13.19l-4.93,6.89c-.85,1.18-.49,1.75.6,2.47C185.57,103.31,191.15,107.08,196.71,110.87Zm-103-69.71c6.48-1.18,11.86-9.28,10.37-13.68C102.52,33.46,98.85,37.82,93.68,41.16ZM98.47,29l.15.34a13.48,13.48,0,0,1,2.11-.22,3.1,3.1,0,0,1,1.1.63c-.3.3-.63.89-.89.84a30.86,30.86,0,0,1-3.43-.76c-.52-.12-1-.27-1.55-.41l-.33.61a18.1,18.1,0,0,0,1.83,1.44c2.4,1.38,4.09,1.08,5.22-1.09.27-.51-.2-1.5-.53-2.17a1.3,1.3,0,0,0-1.16-.48A20.76,20.76,0,0,0,98.49,29Z" fill="#3d2a1b"/><path d="M131,67.07l11.27.8.08-.62a3.67,3.67,0,0,0-.84-.25,45.12,45.12,0,0,1-23.35-8.46c-5-3.59-10.29-6.84-15.81-10.49,7.55-.87,14.36,3.48,22,1.44-.84-.11-1.34-.15-1.85-.22-3.26-.62-6.48-1.31-9.77-1.88-2.66-.5-5.3-1.07-8-1.4a22.68,22.68,0,0,1-9.29-2.85c5.23-2.92,9.11-6.8,10.67-12.67a35.8,35.8,0,0,1,12.51,7.85l-10.71-1.63c5.44,2.26,12.07,4.36,18,7.68s11.32,7.9,16.94,11.93l-.17.44-15.5-2.42-.13.36a78.29,78.29,0,0,0,8.87,2.43,38.5,38.5,0,0,1,18.51,8.29c4,3.19,8.09,6.28,12.38,9.6l-11-3.45-.15.51c9,3.57,18.21,6.91,25.3,14L175,84.92l0,.2,8.33,3.32-6.52,9.1-19-12.63,10.83.4.05-.57c-.57-.06-1.12-.14-1.69-.17a39.54,39.54,0,0,1-20.51-7.14C141.37,73.87,136.13,70.47,131,67.07ZM107.23,49.54c9.56,6.08,18,14.18,30.47,15.66L136,64c-5.1-3.37-10.39-6.49-15.25-10.16-4.07-3.13-8.82-3.51-13.5-4.33Zm29,19.56c8.88,5.39,16.46,12.69,26.61,13.65L143.72,69a2.4,2.4,0,0,0-1.35-.35C140.48,68.81,138.58,69,136.26,69.1Zm26.51,17.6,13.82,9.12c.6-1.12,1.07-2,1.6-2.94l-8.88-6.37a1.9,1.9,0,0,0-1-.24l-5.48.44ZM106,44.88l.13-.39a1.09,1.09,0,0,0-.21-.27c-1.05-.66-2.1-1.3-3.15-1.94-2.46-1.5-2.46-1.5-4.81,1.06Z" fill="#895d24"/><path d="M107.26,49.5c4.71.84,9.43,1.2,13.52,4.3C125.64,57.48,130.93,60.59,136,64l1.69,1.21C125.31,63.68,116.81,55.58,107.26,49.5Z" fill="#ba803f"/><path d="M136.26,69.1c2.32-.13,4.21-.32,6.09-.39a2.35,2.35,0,0,1,1.35.34l19.15,13.73C152.72,81.79,145.17,74.5,136.26,69.1Z" fill="#ba803f"/><path d="M162.79,86.71c2.08-.16,3.78-.3,5.49-.41a1.9,1.9,0,0,1,1,.24l8.88,6.37-1.6,2.94Z" fill="#ba803f"/><path d="M106,44.93l-8-1.58c2.36-2.56,2.36-2.56,4.81-1.07,1.06.65,2.11,1.29,3.15,1.95a.78.78,0,0,1,.22.26Z" fill="#ba803f"/><path d="M219.17,118.07l.11-.14c.73-1.24.62-2.12-.68-3.08-4.62-3.42-9.12-7-13.67-10.48-6.17-4.76-12.34-9.5-18.48-14.29-.89-.64-1.45-.74-2.12.19l-4.94,6.88c-.84,1.19-.49,1.75.61,2.48,5.62,3.7,11.2,7.47,16.79,11.22l.33-.46c4.56,3.28,9.09,6.62,13.7,9.83S216.29,123.24,219.17,118.07Z" fill="#bf9500"/><path d="M104.1,19.74s10.22,5.21,17-2.28,1.07-14,9.33-17.46c0,0-10,.25-14.23,11.66S104.1,19.74,104.1,19.74Z" fill="#828282"/><path d="M93.54,41.26s12.81-2.54,11-14.12c-2-3-9.37.41-12.19,8.12C92,38.07,90.42,41.4,93.54,41.26Z" fill="#f40"/><path d="M93.42,39.25s7.37-.24,9.34-6.91C99.55,33.85,99.71,38.51,93.42,39.25Z" fill="#ff8b2a"/><path d="M103.8,19.68S123.45,23.74,125,8.49C125,8.49,123.46,28,103.8,19.68Z" fill="#fff6e9"/></svg>