<svg xmlns="http://www.w3.org/2000/svg" viewBox="0 0 171.25 63.59"><path d="M87.45,60.82q-39.9,1.36-79.81,2.76c-2.32.09-3.56-.93-4.92-2.82-4.11-5.71-2.81-11.54-1-17.43,1-3.18,2.66-4.28,5.95-4.17q21.35.71,42.67,1.49L90.57,42q21.23.73,42.46,1.49c10.94.37,21.89.69,32.83,1.07,4.31.15,5.14,1,5.37,5.35,0,.69,0,1.37,0,2.06-.06,5.07-.9,5.89-5.83,6.06-21.61.76-43.22,1.58-64.83,2.31-4.37.15-8.75,0-13.13,0ZM56.91,60c6.86-.23,13.76-.55,20.67-.66a43.68,43.68,0,0,0,23.06-6.81c.53-.33,1.08-.62,1.63-.93l.32.54-10,6.63,25.23-.88V45.51l-9.64,2.38-.1-.2,6-2.74c-11-1.81-21.36,1.1-31.8,3.72l-.2-.56,12.15-4c-6-.22-11.68-.36-17.34-.66a42.74,42.74,0,0,0-22,4.48c-3,1.52-6.36,2.37-9.55,3.53l-.12-.4,15.52-7.85-.14-.51c-7.65,0-15.38-.67-22.94.19s-14.82,3.25-21.17,4.72l10.68-5.49a39.66,39.66,0,0,0-16.32,1c2.38,6.28,1.4,12.29-1.43,18.29a25.15,25.15,0,0,0,10.23-3.51c2.63-1.44,5.38-2.63,8.1-3.89,3.32-1.56,6.67-3.07,10-4.61.5-.24,1-.53,1.8-1-5.51,6.73-14.45,7.21-20.68,12.86,7.3-.27,14.14-.71,21-.75a49.94,49.94,0,0,0,26.46-7.45,4.54,4.54,0,0,1,.92-.32l.33.62Zm87.43-3v-.62c6.22,0,12.45.09,18.67,0,6.43-.12,6.93-.8,6.19-7.28,0-.07,0-.14,0-.2-.14-1.59-.8-2.31-2.59-2.33-6.36-.1-12.71-.39-19.07-.62-8.62-.3-17.23-.59-25.84-.94-1.21,0-1.79.27-1.79,1.54,0,3.13,0,6.26,0,9.38,0,1.61.69,1.89,2.14,1.84C129.44,57.39,136.89,57.18,144.34,57ZM6.66,60.72c5.07-5.24,4.69-16,.51-19C9.65,48.09,9.16,54.39,6.66,60.72Zm-3.51-14,.35.21a14.34,14.34,0,0,1,1.76-1.56,3.31,3.31,0,0,1,1.4-.14c-.08.46,0,1.2-.26,1.33a37.75,37.75,0,0,1-3.58,1.53c-.55.22-1.11.42-1.66.63l.1.75a18.57,18.57,0,0,0,2.57.12c3.05-.3,4.38-1.66,4-4.35-.09-.63-1.15-1.21-1.88-1.6a1.42,1.42,0,0,0-1.35.31A22.63,22.63,0,0,0,3.15,46.68Z" fill="#3d2a1b"/><path d="M56.91,60l10.66-6.54-.33-.62a4.54,4.54,0,0,0-.92.32,49.94,49.94,0,0,1-26.46,7.45c-6.83,0-13.67.48-21,.75,6.23-5.65,15.17-6.13,20.68-12.86-.82.44-1.3.73-1.8,1-3.33,1.54-6.68,3-10,4.61-2.72,1.26-5.47,2.45-8.1,3.89A25.15,25.15,0,0,1,9.44,61.43c2.83-6,3.81-12,1.43-18.29a39.66,39.66,0,0,1,16.32-1L16.51,47.58c6.35-1.47,13.67-3.86,21.17-4.72s15.29-.19,22.94-.19l.14.51L45.24,51l.12.4c3.19-1.16,6.54-2,9.55-3.53a42.74,42.74,0,0,1,22-4.48c5.66.3,11.33.44,17.34.66l-12.15,4,.2.56c10.44-2.62,20.84-5.53,31.8-3.72l-6,2.74.1.2,9.64-2.38V57.84l-25.23.88,10-6.63-.32-.54c-.55.31-1.1.6-1.63.93a43.68,43.68,0,0,1-23.06,6.81C70.67,59.4,63.77,59.72,56.91,60Zm-32.65-.48c12.52-.69,25.39,1.12,37.52-5.56-1.1,0-1.7,0-2.3,0-6.76.26-13.53.87-20.28.7C33.52,54.47,29,57.19,24.26,59.47ZM63,58.4c11.47-.88,23,.8,32.75-4.87-8.34,0-17.21,0-26.08,0a2.64,2.64,0,0,0-1.44.56C66.61,55.42,65,56.79,63,58.4Zm35.21-1.26,18.32-.7c-.18-1.4-.31-2.47-.46-3.68-4.06,0-8.08,0-12.1,0a2,2,0,0,0-1.09.45C101.44,54.43,100,55.66,98.24,57.14Zm-78.08-1L20,55.7a1,1,0,0,0-.37-.1c-1.36.08-2.72.18-4.09.28-3.17.24-3.17.24-3.64,4.06Z" fill="#895d24"/><path d="M6.66,60.72c2.5-6.33,3-12.63.51-19C11.35,44.74,11.73,55.48,6.66,60.72Z" fill="#ff9700"/><path d="M3.15,46.68a22.63,22.63,0,0,1,1.43-2.77,1.42,1.42,0,0,1,1.35-.31c.73.39,1.79,1,1.88,1.6.4,2.69-.93,4-4,4.35a18.57,18.57,0,0,1-2.57-.12l-.1-.75c.55-.21,1.11-.41,1.66-.63A37.75,37.75,0,0,0,6.4,46.52c.25-.13.18-.87.26-1.33a3.31,3.31,0,0,0-1.4.14A14.34,14.34,0,0,0,3.5,46.89Z" fill="#ff9700"/><path d="M24.26,59.47c4.78-2.28,9.26-5,14.94-4.85,6.75.17,13.52-.44,20.28-.7.6,0,1.2,0,2.3,0C49.65,60.59,36.78,58.78,24.26,59.47Z" fill="#ba803f"/><path d="M63,58.4c2-1.61,3.58-3,5.23-4.28a2.64,2.64,0,0,1,1.44-.56c8.87,0,17.74,0,26.08,0C86,59.2,74.5,57.52,63,58.4Z" fill="#ba803f"/><path d="M98.24,57.14c1.76-1.48,3.2-2.71,4.67-3.91a2,2,0,0,1,1.09-.45c4,0,8,0,12.1,0,.15,1.21.28,2.28.46,3.68Z" fill="#ba803f"/><path d="M20.16,56.19l-8.25,3.75c.47-3.82.47-3.82,3.64-4.06,1.37-.1,2.73-.2,4.09-.28a1,1,0,0,1,.37.1Z" fill="#ba803f"/><path d="M169.2,49c0-.07,0-.14,0-.2-.14-1.59-.8-2.31-2.59-2.33-6.36-.1-12.71-.39-19.07-.62-8.62-.3-17.23-.59-25.84-.94-1.21,0-1.79.27-1.79,1.54,0,3.13,0,6.26,0,9.38,0,1.61.69,1.89,2.14,1.84,7.45-.3,14.9-.51,22.35-.74v-.62c6.22,0,12.45.09,18.67,0C169.44,56.18,169.94,55.5,169.2,49Z" fill="#bf9500"/><path d="M2.22,34.73s12.56-1.9,13.81-13S7.93,8.41,13.16,0c0,0-8.81,6.66-5.28,19.67S2.22,34.73,2.22,34.73Z" fill="#828282"/></svg>