<svg xmlns="http://www.w3.org/2000/svg" xmlns:xlink="http://www.w3.org/1999/xlink" viewBox="0 0 33.23 33.23"><defs><clipPath id="a"><circle cx="16.62" cy="16.62" r="16.62" fill="none"/></clipPath></defs><g clip-path="url(#a)"><rect x="-8.93" y="-0.75" width="52.5" height="35.25" fill="#ed5565"/><path d="M-8.93,3.32h52.5m0,5.42H-8.93m0,5.43h52.5m0,5.42H-8.93m0,5.42h52.5m0,5.43H-8.93" stroke="#f5f7fa" stroke-miterlimit="10" stroke-width="2.4"/><rect x="-8.93" y="-0.75" width="26.79" height="19.14" fill="#4758a9"/><path d="M0,2l.64,2L-1,2.71H1L-.64,3.93Z" fill="#fff"/><path d="M0,5.76l.64,2L-1,6.51H1L-.64,7.72Z" fill="#fff"/><path d="M0,9.56l.64,2L-1,10.31H1L-.64,11.52Z" fill="#fff"/><path d="M0,13.35l.64,2L-1,14.1H1L-.64,15.31Z" fill="#fff"/><path d="M2.23.07l.64,2L1.2.82H3.26L1.59,2Z" fill="#fff"/><path d="M2.23,3.86l.64,2L1.2,4.61H3.26L1.59,5.82Z" fill="#fff"/><path d="M2.23,7.66l.64,2L1.2,8.41H3.26L1.59,9.62Z" fill="#fff"/><path d="M2.23,11.45l.64,2L1.2,12.2H3.26L1.59,13.42Z" fill="#fff"/><path d="M2.23,15.25l.64,2L1.2,16H3.26L1.59,17.21Z" fill="#fff"/><path d="M4.46,2l.64,2L3.43,2.71H5.5L3.83,3.93Z" fill="#fff"/><path d="M4.46,5.76l.64,2L3.43,6.51H5.5L3.83,7.72Z" fill="#fff"/><path d="M4.46,9.56l.64,2L3.43,10.31H5.5L3.83,11.52Z" fill="#fff"/><path d="M4.46,13.35l.64,2L3.43,14.1H5.5L3.83,15.31Z" fill="#fff"/><path d="M6.7.07l.63,2L5.66.82H7.73L6.06,2Z" fill="#fff"/><path d="M6.7,3.86l.63,2L5.66,4.61H7.73L6.06,5.82Z" fill="#fff"/><path d="M6.7,7.66l.63,2L5.66,8.41H7.73L6.06,9.62Z" fill="#fff"/><path d="M6.7,11.45l.63,2L5.66,12.2H7.73L6.06,13.42Z" fill="#fff"/><path d="M6.7,15.25l.63,2L5.66,16H7.73L6.06,17.21Z" fill="#fff"/><path d="M8.93,2l.64,2L7.9,2.71H10L8.29,3.93Z" fill="#fff"/><path d="M8.93,5.76l.64,2L7.9,6.51H10L8.29,7.72Z" fill="#fff"/><path d="M8.93,9.56l.64,2L7.9,10.31H10L8.29,11.52Z" fill="#fff"/><path d="M8.93,13.35l.64,2L7.9,14.1H10L8.29,15.31Z" fill="#fff"/><path d="M11.16.07l.64,2L10.13.82h2.06L10.52,2Z" fill="#fff"/><path d="M11.16,3.86l.64,2L10.13,4.61h2.06L10.52,5.82Z" fill="#fff"/><path d="M11.16,7.66l.64,2L10.13,8.41h2.06L10.52,9.62Z" fill="#fff"/><path d="M11.16,11.45l.64,2L10.13,12.2h2.06l-1.67,1.22Z" fill="#fff"/><path d="M11.16,15.25l.64,2L10.13,16h2.06l-1.67,1.21Z" fill="#fff"/><path d="M13.39,2l.64,2L12.36,2.71h2.07L12.76,3.93Z" fill="#fff"/><path d="M13.39,5.76l.64,2L12.36,6.51h2.07L12.76,7.72Z" fill="#fff"/><path d="M13.39,9.56l.64,2-1.67-1.21h2.07l-1.67,1.21Z" fill="#fff"/><path d="M13.39,13.35l.64,2L12.36,14.1h2.07l-1.67,1.21Z" fill="#fff"/><path d="M15.63.07l.63,2L14.59.82h2.07L15,2Z" fill="#fff"/><path d="M15.63,3.86l.63,2L14.59,4.61h2.07L15,5.82Z" fill="#fff"/><path d="M15.63,7.66l.63,2L14.59,8.41h2.07L15,9.62Z" fill="#fff"/><path d="M15.63,11.45l.63,2L14.59,12.2h2.07L15,13.42Z" fill="#fff"/><path d="M15.63,15.25l.63,2L14.59,16h2.07L15,17.21Z" fill="#fff"/></g></svg>