<svg xmlns="http://www.w3.org/2000/svg" viewBox="0 0 158.92 96.76"><path d="M153.61,67.28a1.44,1.44,0,0,1,.19.59q-3.51,10.55-7.22,24.55,0,1.59-7,2.34-1.94,0-1.93-4.86-.4,0-1.17,3.69-.54,1-5.26,1-.21,0-.21.18c-.82,0-1.46-.79-1.91-2.36a20.49,20.49,0,0,1-.62-3.67l-3.11-20.28c-.18,0-.51-.32-1-1v-.2q0-2.15,7.22-3.12,2.14,0,2.14,4.49,0,1.18.58,7.22a15.54,15.54,0,0,1,3.13-4.09H138c1.34,0,2.38,2.07,3.12,6.23h.39q2.61-13.45,4.68-13.45a1.46,1.46,0,0,1,.58-.2C151.34,65.69,153.61,66.66,153.61,67.28Zm-2.74,1.37v-.2A17.63,17.63,0,0,0,147,67.08a121.84,121.84,0,0,0-4.09,16.77,1.59,1.59,0,0,1-1.37.79h-.39q-.33,0-.78-1a36.94,36.94,0,0,1-1.75-5.87c-.51-1.56-.83-2.34-1-2.34a57.91,57.91,0,0,0-2.93,6.25,2.39,2.39,0,0,1-1.17.38h-.2q-1.52,0-2-10.72A42.36,42.36,0,0,1,131,66.9h-.2c-1.94.3-2.92.56-2.92.77q1.95,13.92,3.71,24.17l.38.2c1.7,0,2.54-.26,2.54-.79a33.29,33.29,0,0,1,2.14-7.6,1.51,1.51,0,0,1,1.17-.58h.4c.29,0,.55.25.79.74.51,1.09.9,3.37,1.15,6.86.1.78.23,1.17.4,1.17,2.6,0,3.89-.32,3.89-1Q148,77.38,150.87,68.65Z" fill="#0098e7"/><path d="M150.87,68.45v.2q-2.93,8.75-6.43,22.22c0,.65-1.29,1-3.89,1-.17,0-.3-.39-.4-1.17-.25-3.49-.64-5.77-1.15-6.86l1.35-.13q.45,1,.78,1h.39a1.59,1.59,0,0,0,1.37-.79A121.84,121.84,0,0,1,147,67.08,17.63,17.63,0,0,1,150.87,68.45Z" fill="#c900ff"/><path d="M140.35,83.68l-1.35.13c-.24-.49-.5-.74-.79-.74h-.4a1.51,1.51,0,0,0-1.17.58,33.29,33.29,0,0,0-2.14,7.6c0,.53-.84.79-2.54.79l-.38-.2q-1.76-10.25-3.71-24.17c0-.21,1-.47,2.92-.77h.2a42.36,42.36,0,0,0,.39,4.48q.44,10.73,2,10.72h.2a2.39,2.39,0,0,0,1.17-.38,57.91,57.91,0,0,1,2.93-6.25c.14,0,.46.78,1,2.34A36.94,36.94,0,0,0,140.35,83.68Z" fill="#c900ff"/><path d="M127.39,92.47A11,11,0,0,1,128,95c0,.92-2,1.37-6,1.37q-3.11,0-5.06-9.94a5.81,5.81,0,0,0-2.34-1,55.15,55.15,0,0,0-1.37,10.14,3.71,3.71,0,0,1-2.92,1h-2.72c-2.86,0-4.3-.91-4.3-2.73Q108.88,73,111.8,65.15c0-.53,2.15-.92,6.43-1.17h1.17c1.68,0,2.68,1.19,3,3.59a14.73,14.73,0,0,1,.11,1.85q2.16,15.08,3.12,18.14C126.41,89.6,127,91.24,127.39,92.47Zm-2.73,1.12.39-.18A60,60,0,0,1,121.34,79Q119.9,66.5,119.2,66.5H119c-3.76,0-5.65.45-5.65,1.37-.73,2.36-1.48,4.82-2.23,7.39q-2.5,8.4-5.17,18.33a2.24,2.24,0,0,0,1.17.4h3.31q.39,0,1-6.43.73-4.87,2.54-4.87c.31,0,.61.08.9.14,3.16.6,4.75,2.18,4.75,4.73,1.14,3.88,2,5.89,2.53,6Z" fill="#0098e7"/><path d="M125.05,93.41l-.39.18h-2.54c-.54-.14-1.39-2.15-2.53-6,0-2.55-1.59-4.13-4.75-4.73l.31-1.52a9.19,9.19,0,0,0,2.1.21h1.57a2,2,0,0,0,1-1.17c-.05-.37-.11-.74-.16-1.08l1.71-.29A60,60,0,0,0,125.05,93.41Z" fill="#c900ff"/><path d="M121.34,79l-1.71.29q-1.25-7.69-3.15-7.69t-3,4.39l-2.39-.71c.75-2.57,1.5-5,2.23-7.39,0-.92,1.89-1.37,5.65-1.37h.2Q119.91,66.5,121.34,79Z" fill="#c900ff"/><path d="M119.63,79.27c.05.34.11.71.16,1.08a2,2,0,0,1-1,1.17h-1.57a9.19,9.19,0,0,1-2.1-.21,2.88,2.88,0,0,1-2.38-1.93c.23-1.3.48-2.44.74-3.41q1.21-4.39,3-4.39T119.63,79.27Z" fill="#f84b00"/><path d="M115.15,81.31l-.31,1.52c-.29-.06-.59-.1-.9-.14q-1.8,0-2.54,4.87-.59,6.43-1,6.43h-3.31a2.24,2.24,0,0,1-1.17-.4q2.67-9.91,5.17-18.33l2.39.71c-.26,1-.51,2.11-.74,3.41A2.88,2.88,0,0,0,115.15,81.31Z" fill="#c900ff"/><path d="M101.54,89.9q0,1.13-4.29,4.68H96.08q-4.47-3.31-6.81-5.26h-.2A23.79,23.79,0,0,1,89.85,94v.59c-.13,1-.59,1.55-1.37,1.55-1.82-.13-3.38-.2-4.68-.2h-.38q-2,0-2-2.34Q80.3,80.33,80.3,71.38q0-5.47,3.7-5.47a27.39,27.39,0,0,1,6.44-.76q6.34,0,8.57,5.06a21.78,21.78,0,0,1,.4,2.33q0,7.29-7,9.36v.2Q101.54,88.3,101.54,89.9Zm-3.12.39V89.9a99,99,0,0,0-9.94-7.42l-.18-1v-.59q0-.72,5.06-2a6.92,6.92,0,0,0,3.51-6.23q0-5.09-6.82-5.08c-4.68.25-7,.84-7,1.75a16.21,16.21,0,0,0-.21,2.36q0,8.3,1.17,21.43l1.37.2h1.36l.4.18a.16.16,0,0,1,.18-.18,35,35,0,0,1-1-6.43v-.4A1.38,1.38,0,0,1,87.9,85q.8,0,5.08,4.1,3.21,2.53,3.89,2.53C97.51,90.74,98,90.29,98.42,90.29Z" fill="#0098e7"/><path d="M98.42,89.9v.39c-.39,0-.91.45-1.55,1.36q-.68,0-3.89-2.53Q88.69,85,87.9,85a1.38,1.38,0,0,0-1.56,1.56V87a35,35,0,0,0,1,6.43.16.16,0,0,0-.18.18l-.4-.18H85.37L84,93.21q-1.17-13.12-1.17-21.43A16.21,16.21,0,0,1,83,69.42c0-.91,2.33-1.5,7-1.75q6.83,0,6.82,5.08A6.92,6.92,0,0,1,93.36,79q-5.06,1.23-5.06,2v.59l.18,1A99,99,0,0,1,98.42,89.9ZM93,73.91C92.63,72,91.39,71,89.27,71H87.71C86.54,71,86,71.9,86,73.71v2.74Q86,78,87.31,78h.2C91.15,76.86,93,75.5,93,73.91Z" fill="#c900ff"/><path d="M89.27,71c2.12,0,3.36,1,3.71,2.92,0,1.59-1.83,3-5.47,4.1h-.2Q86,78,86,76.45V73.71c0-1.81.58-2.72,1.75-2.72Z" fill="#f84b00"/><path d="M78.44,67.28a1.61,1.61,0,0,1,.19.59q-3.51,10.55-7.22,24.55,0,1.59-7,2.34-1.94,0-1.94-4.86c-.26,0-.65,1.23-1.16,3.69-.36.66-2.11,1-5.27,1-.13,0-.2.06-.2.18-.74,0-1.33-.64-1.77-1.91a18.14,18.14,0,0,1-.77-4.12l-3.1-20.28c-.18,0-.51-.32-1-1v-.2q0-2.15,7.22-3.12c1.42,0,2.14,1.5,2.14,4.49q0,1.18.58,7.22a15.8,15.8,0,0,1,3.12-4.09h.59c1.34,0,2.38,2.07,3.12,6.23h.39Q68.94,64.56,71,64.56a1.54,1.54,0,0,1,.59-.2Q78.44,66.35,78.44,67.28ZM75.7,68.65v-.2a17.63,17.63,0,0,0-3.89-1.37,121.84,121.84,0,0,0-4.09,16.77,1.61,1.61,0,0,1-1.37.79H66c-.23,0-.48-.32-.78-1a37.76,37.76,0,0,1-1.76-5.87c-.5-1.56-.82-2.34-1-2.34a58.6,58.6,0,0,0-2.92,6.25,2.39,2.39,0,0,1-1.17.38h-.2q-1.52,0-1.95-10.72a42.36,42.36,0,0,1-.39-4.48h-.2c-1.95.3-2.92.56-2.92.77q1.95,13.92,3.71,24.17l.38.2c1.69,0,2.54-.26,2.54-.79a33.29,33.29,0,0,1,2.14-7.6,1.49,1.49,0,0,1,1.17-.58H63c.29,0,.55.25.78.74.52,1.09.91,3.37,1.16,6.86.1.78.23,1.17.4,1.17,2.59,0,3.89-.32,3.89-1Q72.78,77.38,75.7,68.65Z" fill="#0098e7"/><path d="M75.7,68.45v.2q-2.92,8.75-6.43,22.22c0,.65-1.3,1-3.89,1-.17,0-.3-.39-.4-1.17-.25-3.49-.64-5.77-1.16-6.86l1.36-.13c.3.64.55,1,.78,1h.39a1.61,1.61,0,0,0,1.37-.79,121.84,121.84,0,0,1,4.09-16.77A17.63,17.63,0,0,1,75.7,68.45Z" fill="#c900ff"/><path d="M65.18,83.68l-1.36.13c-.23-.49-.49-.74-.78-.74h-.4a1.49,1.49,0,0,0-1.17.58,33.29,33.29,0,0,0-2.14,7.6c0,.53-.85.79-2.54.79l-.38-.2Q54.66,81.6,52.7,67.67c0-.21,1-.47,2.92-.77h.2a42.36,42.36,0,0,0,.39,4.48q.43,10.73,1.95,10.72h.2a2.39,2.39,0,0,0,1.17-.38,58.6,58.6,0,0,1,2.92-6.25c.15,0,.47.78,1,2.34A37.76,37.76,0,0,0,65.18,83.68Z" fill="#c900ff"/><path d="M52.35,92.91a8.68,8.68,0,0,1,.45,2c0,.92-2,1.37-6,1.37q-3.11,0-5.06-9.94a5.81,5.81,0,0,0-2.34-1A55.15,55.15,0,0,0,38,95.55a3.71,3.71,0,0,1-2.92,1H32.34q-4.31,0-4.3-2.73Q33.71,73,36.63,65.15q0-.8,6.43-1.17h1.17c1.68,0,2.68,1.19,3,3.59a14.73,14.73,0,0,1,.11,1.85q2.14,15.08,3.12,18.14Q51.78,91,52.35,92.91Zm-2.86.68.39-.18A59.49,59.49,0,0,1,46.17,79Q44.73,66.5,44,66.5h-.2c-3.77,0-5.65.45-5.65,1.37Q37.09,71.38,36,75.21q-2.49,8.43-5.17,18.38A2.24,2.24,0,0,0,32,94h3.31q.39,0,1-6.43c.49-3.25,1.33-4.87,2.54-4.87.31,0,.61.08.9.14q4.74.9,4.74,4.73,1.73,5.82,2.54,6Z" fill="#0098e7"/><path d="M49.88,93.41l-.39.18H47q-.81-.21-2.54-6,0-3.82-4.74-4.73L40,81.31a9.19,9.19,0,0,0,2.1.21h1.57a2,2,0,0,0,1-1.17c0-.37-.11-.74-.16-1.08L46.17,79A59.49,59.49,0,0,0,49.88,93.41Z" fill="#c900ff"/><path d="M46.17,79l-1.72.29q-1.23-7.69-3.14-7.69-1.76,0-3,4.39L36,75.21q1.14-3.83,2.23-7.34c0-.92,1.88-1.37,5.65-1.37H44Q44.74,66.5,46.17,79Z" fill="#c900ff"/><path d="M44.45,79.27c0,.34.11.71.16,1.08a2,2,0,0,1-1,1.17H42.08a9.19,9.19,0,0,1-2.1-.21,2.88,2.88,0,0,1-2.38-1.93c.23-1.3.47-2.44.74-3.41q1.21-4.39,3-4.39T44.45,79.27Z" fill="#f84b00"/><path d="M40,81.31l-.31,1.52c-.29-.06-.59-.1-.9-.14-1.21,0-2.05,1.62-2.54,4.87q-.58,6.43-1,6.43H32a2.24,2.24,0,0,1-1.17-.4Q33.47,83.64,36,75.21l2.39.76c-.27,1-.51,2.11-.74,3.41A2.88,2.88,0,0,0,40,81.31Z" fill="#c900ff"/><path d="M26.37,89.9q0,1.13-4.29,4.68H20.91q-4.47-3.31-6.82-5.26h-.2A23.26,23.26,0,0,1,14.68,94v.59c-.13,1-.59,1.55-1.37,1.55-1.83-.13-3.39-.2-4.68-.2H8.25c-1.3,0-2-.78-2-2.34Q5.12,80.33,5.12,71.38q0-5.47,3.71-5.47a27.37,27.37,0,0,1,6.43-.76q6.36,0,8.57,5.06a19.25,19.25,0,0,1,.4,2.33q0,7.29-7,9.36v.2Q26.37,88.3,26.37,89.9Zm-3.12.39V89.9a99,99,0,0,0-9.94-7.42l-.18-1v-.59c0-.48,1.68-1.13,5.06-2a6.92,6.92,0,0,0,3.51-6.23c0-3.39-2.28-5.08-6.82-5.08-4.68.25-7,.84-7,1.75a17.53,17.53,0,0,0-.2,2.36q0,8.3,1.17,21.43l1.37.2h1.36l.4.18a.16.16,0,0,1,.18-.18,34.1,34.1,0,0,1-1-6.43v-.4A1.38,1.38,0,0,1,12.72,85q.81,0,5.08,4.1,3.22,2.53,3.9,2.53C22.34,90.74,22.86,90.29,23.25,90.29Z" fill="#0098e7"/><path d="M23.25,89.9v.39c-.39,0-.91.45-1.55,1.36q-.68,0-3.9-2.53Q13.52,85,12.72,85a1.38,1.38,0,0,0-1.55,1.56V87a34.1,34.1,0,0,0,1,6.43.16.16,0,0,0-.18.18l-.4-.18H10.2l-1.37-.2Q7.66,80.08,7.66,71.78a17.53,17.53,0,0,1,.2-2.36c0-.91,2.34-1.5,7-1.75,4.54,0,6.82,1.69,6.82,5.08A6.92,6.92,0,0,1,18.19,79c-3.38.82-5.06,1.47-5.06,2v.59l.18,1A99,99,0,0,1,23.25,89.9Zm-5.45-16C17.46,72,16.22,71,14.09,71H12.54c-1.17,0-1.75.91-1.75,2.72v2.74q0,1.56,1.35,1.56h.2C16,76.86,17.8,75.5,17.8,73.91Z" fill="#c900ff"/><path d="M14.09,71c2.13,0,3.37,1,3.71,2.92,0,1.59-1.82,3-5.46,4.1h-.2q-1.35,0-1.35-1.56V73.71c0-1.81.58-2.72,1.75-2.72Z" fill="#f84b00"/><path d="M32.11,51.88a82.11,82.11,0,0,0,5.28-9.37c.35-.76.92-1.49.36-2.4a2.41,2.41,0,0,1,.3-1.82c4.29-8.14,1.4-14.8-4.33-20.85a25.1,25.1,0,0,0-4.38-4c-.39-.25-.8-.57-.57-1.15,1.4-1.86,3.38-1.49,5.22-1.19,6.91,1.12,13.1,4.15,19.19,7.4a3,3,0,0,0,3.4.06C67.65,12.48,79.3,11,91.47,14.69a2.85,2.85,0,0,0,3.27-.91C99.41,9.23,104.32,5,110.12,1.9c2.1-1.1,4.25-2.69,6.9-1.45.7,1.12-.24,1.81-.77,2.5a32.37,32.37,0,0,0-4.9,10.53A13.61,13.61,0,0,0,114.29,27c.87,1,1.87,2,1.42,3.58a2.9,2.9,0,0,0,.06,3.25c3.12,6,5.48,12.43,9.38,18-.42,1.67-1.8,1-2.71.93-7.35-.12-13.87,2.58-18.53,4.71a44.52,44.52,0,0,1,22.27-4.74,18,18,0,0,1,19.28,5.8c1.95,2.43,3.4,5.09,1.71,8.26-1.27,2.37-6.31,4.44-9.2,3.79a3.37,3.37,0,0,0-2.87.33,3.31,3.31,0,0,1-2.52.53c-4.36-1.16-9-1.53-12.85-4.17-2.41-1.66-3.81-4-2.79-7.18-1.62-.82-3.34-.19-5-.37-1.3-.14-2.65.21-4-.27,1.35-1.11,4.56-1.86,8.75-2.13-4.19.17-8.17,1.49-12.23,2.37-7.46,0-14.92,0-22.38,0-2.67,0-3.29-1-2.07-3.39.35-.69,1.11-1.39.53-2.16s-1.72-.67-2.66-.52c-1.27.19-1.57.91-.95,2,.08.14.17.27.24.41,1.37,2.72.9,3.54-2.11,3.64-5.62,0-11.25-.12-16.87,0a37.73,37.73,0,0,1-11.45-1.48c-1.84-.52-3.76-.49-4.73-.77,1.88.34,4.7.53,7.31,1.71-3,1-6-.1-9,.86,1.06,4.66-3.36,9.65-8.41,9.34a3.1,3.1,0,0,0-2.52.79,3.92,3.92,0,0,1-3,1.15c-4.32-.78-8.88,0-13-1.94s-5.08-5.17-2.76-9.15c3.34-5.71,10.78-9.19,17.54-8.19.54.08,1.09.21,1.63.31a7.73,7.73,0,0,0,3,.37c7.67-.39,14.65,2,21.47,5.14.24.11.55.38.74.11-2.53-.74-4.91-2-7.42-2.88a36.47,36.47,0,0,0-13-2.36C33.73,52.84,32.42,53.49,32.11,51.88Z"/><path d="M28.77,12.31A30.89,30.89,0,0,1,39.21,24.07c2.92,5.66,1.41,10.91-1.46,16C31,32.88,28,24.16,27.85,14.4A2.39,2.39,0,0,1,28.77,12.31Z" fill="#4c4c4c"/><path d="M115.71,30.59a2.78,2.78,0,0,0-.85-1.91c-6.69-6.71-5.36-14-1.83-21.63,1.1-2.36,3-4.2,4-6.6,3,2,2.37,5.23,2.82,8.1-.19,2.54,0,5.07,0,7.61A31.73,31.73,0,0,1,115.71,30.59Z" fill="#4c4c4c"/><path d="M75.07,59.62c.78-.22,1.83.22,2.27-.88s-.21-1.79-1-2.43a2,2,0,0,1-.8-2.32c.35-1,1.29-1.06,2.18-1.09.63,0,1.27,0,1.9,0,.8,0,1.66,0,2,.92A2.09,2.09,0,0,1,81,56.19c-.76.72-1.65,1.4-1,2.61s1.67.73,2.56.73c7.3,0,14.6,0,21.9-.06,1,.15,2.25-1.11,3,.46H75.06Z" fill="#4b4b4b"/><path d="M75.07,59.62c0,.1,0,.21,0,.32L43.65,60c-1.11,0-2.22.07-3.33.11,1.36-1.21,3-.4,4.48-.56,1.32-.13,2.67,0,4-.14-3.33-1-6.94-.81-10.16-2.25a9.44,9.44,0,0,1,6.48.2c7.69,2.69,15.61,2.12,23.51,2.16C70.79,59.55,72.93,59.59,75.07,59.62Z" fill="#484848"/><path d="M32.11,51.88c.82,1,1.93.53,2.88.48,7.57-.4,14.14,2.56,20.77,5.87-.78.7-1.33.23-1.85,0-6.68-2.74-13.42-5.15-20.81-4.91a5.1,5.1,0,0,1-3.36-.89C30.59,52.5,31.47,52.7,32.11,51.88Z" fill="#4b4b4b"/><path d="M126.18,52.79c-2.27,1.06-4.71.38-7.05.73A64,64,0,0,0,103.91,58c-.7.29-1.37.88-2.54.29,6-3,11.83-5.68,18.5-5.95,1.76-.07,3.61.66,5.28-.46Z" fill="#4b4b4b"/><path d="M107.48,59.93c-.93-.74-2-.22-3-.46a41.59,41.59,0,0,1,14.12-2.78c-.49.81-.49.82-4.67,1.61a36.83,36.83,0,0,0-5.32,1.24c2.1,0,4.2,0,6.3,0,.71,0,1.63-.44,2.07.59Z" fill="#484848"/><path d="M119.89,16.16a13.5,13.5,0,0,1,0-7.61A21.38,21.38,0,0,1,119.89,16.16Z" fill="#3e3e3e"/><path d="M64.62,36a12.12,12.12,0,0,1,2.31,2l.08.1c5.27,6,1.95,15.93-6.49,15.76H60.4c-.67,0-1.33-.11-2-.2,6.44-1.08,9.91-10.15,6.72-16.66-.16-.33-.32-.64-.49-.94Z" fill="#0097e6"/><path d="M51.43,51A13.36,13.36,0,0,1,50,49.86l-.05,0a8.4,8.4,0,0,1-.15-12l.08-.09a13.24,13.24,0,0,1,2.44-1.86C50.43,40.43,49.94,47.66,51.43,51Z" fill="#f74b00"/><path d="M51.43,51c-1.49-3.36-1-10.59.85-15.13a11.73,11.73,0,0,1,2.91-1.2c-.48,5.49-1.6,14-2.17,17.28A12.84,12.84,0,0,1,51.43,51Z" fill="#fe9600"/><path d="M53,52c.57-3.31,1.69-11.79,2.17-17.28a13.68,13.68,0,0,1,3.39-.43c.78,6.12-1.1,15.52-3.86,18.46A13.51,13.51,0,0,1,53,52Z" fill="#f549a2"/><path d="M54.72,52.72c2.76-2.94,4.64-12.34,3.86-18.46a11,11,0,0,1,3.27.45c2.11,6.4-.45,16.36-5.32,18.57A17.32,17.32,0,0,1,54.72,52.72Z" fill="#c800fe"/><path d="M56.53,53.28C61.4,51.07,64,41.11,61.85,34.71A10,10,0,0,1,64.62,36l0,.06c.17.3.33.61.49.94,3.19,6.51-.28,15.58-6.72,16.66C57.78,53.56,57.14,53.43,56.53,53.28Z" fill="#4836fb"/><path d="M105,35.86a11.77,11.77,0,0,1,2.49,1.89l.07.06a8.5,8.5,0,0,1-.17,12l-.06,0A15.32,15.32,0,0,1,105.88,51c1.25-3.26,1-9.85-.63-14.45-.08-.22-.16-.45-.25-.66Z" fill="#0097e6"/><path d="M99.22,53.65c-.59.1-1.19.17-1.8.22h-.13C88,53.73,84.8,44.29,90.17,38.17l.11-.12A12.51,12.51,0,0,1,92.67,36C88.88,42.44,91.73,52.22,99.22,53.65Z" fill="#f74b00"/><path d="M99.22,53.65C91.73,52.22,88.88,42.44,92.67,36a10.45,10.45,0,0,1,2.77-1.3c-2.26,6.51.12,16.16,5.54,18.6A17.2,17.2,0,0,1,99.22,53.65Z" fill="#fe9600"/><path d="M101,53.27c-5.42-2.44-7.8-12.09-5.54-18.6a11.22,11.22,0,0,1,3.1-.45c-.86,6.21.92,15.38,4.15,18.5A17,17,0,0,1,101,53.27Z" fill="#f549a2"/><path d="M102.69,52.72c-3.23-3.12-5-12.29-4.15-18.5a14.27,14.27,0,0,1,3.4.43A131,131,0,0,0,104.32,52,16,16,0,0,1,102.69,52.72Z" fill="#c800fe"/><path d="M104.32,52a131,131,0,0,1-2.38-17.32,12.22,12.22,0,0,1,3,1.21l0,0c.09.21.17.44.25.66,1.62,4.6,1.88,11.19.63,14.45A14.76,14.76,0,0,1,104.32,52Z" fill="#4836fb"/><path d="M51.28,44.53A8.35,8.35,0,0,1,59.75,36a8.47,8.47,0,1,1-.08,16.93A8.36,8.36,0,0,1,51.28,44.53Z"/><path d="M106.37,44.34a8.36,8.36,0,0,1-8.18,8.54A8.44,8.44,0,1,1,97.72,36,8.33,8.33,0,0,1,106.37,44.34Z"/><path d="M66,48c-3.94,4.65-12.71,1.55-11.76-4.86a5.59,5.59,0,0,1,3.42-4.43c2.82-1.14,6.59,1,6.29,4.23-.16,3.44-4.85,4.86-6.23,1.45-.68-2,1.74-4.08,3.33-2.4-1.58-1.35-3.59.53-2.87,2.24A2.32,2.32,0,0,0,60,45.62c2.63.49,4.06-3.12,2.37-4.91-2.44-2.76-6.7-.91-7.17,2.56C54.24,49,62.05,51.8,66,48Z" fill="#eb008b"/><path d="M104.67,48c-3.93,4.64-12.68,1.55-11.74-4.85a5.62,5.62,0,0,1,3.42-4.42c2.81-1.14,6.57,1,6.27,4.22-.16,3.44-4.83,4.85-6.21,1.45-.68-2,1.74-4.07,3.32-2.39-1.57-1.35-3.58.52-2.86,2.23a2.34,2.34,0,0,0,1.79,1.41c2.61.48,4-3.12,2.35-4.9-2.43-2.75-6.68-.91-7.14,2.55C93,49,100.74,51.78,104.67,48Z" fill="#eb008b"/></svg>