<?xml version="1.0" encoding="iso-8859-1"?>
<!-- Uploaded to: SVG Repo, www.svgrepo.com, Generator: SVG Repo Mixer Tools -->
<svg height="70px" width="70px" version="1.1" id="Layer_1" xmlns="http://www.w3.org/2000/svg" xmlns:xlink="http://www.w3.org/1999/xlink" 
	 viewBox="0 0 504.126 504.126" xml:space="preserve">
<path style="fill:#FF7F00;" d="M380.64,42.009c-33.973,7.247-60.101,49.979-60.101,101.793c0,51.807,26.12,69.38,60.101,72.121
	V42.009z"/>
<path style="fill:#FF4800;" d="M380.301,42.009c33.965,7.247,60.085,49.979,60.085,101.793c0,51.807-26.112,69.38-60.085,72.121
	V42.009z"/>
<path style="fill:#FFBC00;" d="M380.569,103.52c-21.953,4.655-38.833,32.295-38.833,65.788c0,33.501,16.88,44.851,38.833,46.624
	V103.52z"/>
<path style="fill:#FF7F00;" d="M380.356,103.52c21.953,4.655,38.833,32.295,38.833,65.788c0,33.501-16.88,44.851-38.833,46.624
	V103.52z"/>
<path style="fill:#1C363F;" d="M389.328,233.347c0,4.892-3.97,8.862-8.862,8.862l0,0c-4.892,0-8.862-3.97-8.862-8.862v-14.769
	c0-4.892,3.97-8.862,8.862-8.862l0,0c4.892,0,8.862,3.97,8.862,8.862V233.347z"/>
<path style="fill:#1F4A59;" d="M456.282,344.609c0,17.4-14.108,31.508-31.508,31.508h-88.615c-17.4,0-31.508-14.108-31.508-31.508
	v-96.492c0-17.4,14.108-21.662,31.508-21.662h88.615c17.4,0,31.508,4.261,31.508,21.662V344.609z"/>
<g>
	<path style="fill:#366377;" d="M304.651,248.117c0-17.4,14.108-21.662,31.508-21.662h88.615c17.4,0,31.508,4.261,31.508,21.662"/>
</g>
<path id="SVGCleanerId_0" style="fill:#ADBCB9;" d="M256.806,323.869v113.672c0,13.58,10.996,24.576,24.568,24.576h198.168
	c13.58,0,24.584-10.996,24.584-24.576V323.869H256.806z"/>
<g>
	<path id="SVGCleanerId_0_1_" style="fill:#ADBCB9;" d="M256.806,323.869v113.672c0,13.58,10.996,24.576,24.568,24.576h198.168
		c13.58,0,24.584-10.996,24.584-24.576V323.869H256.806z"/>
</g>
<path style="fill:#9AA8A5;" d="M256.806,437.541c0,13.58,10.996,24.576,24.568,24.576h198.168c13.58,0,24.584-10.996,24.584-24.576
	v-98.304h-247.32V437.541z"/>
<path style="fill:#859390;" d="M256.806,437.541c0,13.58,10.996,24.576,24.568,24.576h198.168c13.58,0,24.584-10.996,24.584-24.576
	v-98.304"/>
<path style="fill:#ADBCB9;" d="M7.202,258.751l140.107,140.123c9.602,9.594,25.167,9.594,34.761,0l74.957-74.957L82.151,149.041
	L7.195,223.998C-2.4,233.584-2.4,249.149,7.202,258.751z"/>
<path style="fill:#9AA8A5;" d="M147.309,398.873c9.602,9.594,25.167,9.594,34.761,0l74.957-74.957L82.151,149.041"/>
<g>
	<circle style="fill:#366377;" cx="326.651" cy="270.117" r="6.231"/>
	<circle style="fill:#366377;" cx="353.519" cy="270.117" r="6.231"/>
	<circle style="fill:#366377;" cx="380.466" cy="270.117" r="6.231"/>
	<circle style="fill:#366377;" cx="407.397" cy="270.117" r="6.231"/>
	<circle style="fill:#366377;" cx="434.281" cy="270.117" r="6.231"/>
	<circle style="fill:#366377;" cx="326.651" cy="293.748" r="6.231"/>
	<circle style="fill:#366377;" cx="353.519" cy="293.748" r="6.231"/>
	<circle style="fill:#366377;" cx="380.466" cy="293.748" r="6.231"/>
	<circle style="fill:#366377;" cx="407.397" cy="293.748" r="6.231"/>
	<circle style="fill:#366377;" cx="434.281" cy="293.748" r="6.231"/>
	<circle style="fill:#366377;" cx="326.651" cy="317.378" r="6.231"/>
	<circle style="fill:#366377;" cx="353.519" cy="317.378" r="6.231"/>
	<circle style="fill:#366377;" cx="380.466" cy="317.378" r="6.231"/>
	<circle style="fill:#366377;" cx="407.397" cy="317.378" r="6.231"/>
	<circle style="fill:#366377;" cx="434.281" cy="317.378" r="6.231"/>
	<circle style="fill:#366377;" cx="470.492" cy="238.271" r="28.554"/>
</g>
<path style="fill:#1F4A59;" d="M450.342,218.09c11.138-11.154,29.231-11.154,40.377-0.008c11.146,11.146,11.146,29.239,0,40.385"/>
</svg>