<svg xmlns="http://www.w3.org/2000/svg" viewBox="0 0 158.92 96.76"><path d="M140.35,83.68q.45,1,.78,1h.39a1.59,1.59,0,0,0,1.37-.79A121.84,121.84,0,0,1,147,67.08a17.63,17.63,0,0,1,3.89,1.37v.2q-2.93,8.75-6.43,22.22c0,.65-1.29,1-3.89,1-.17,0-.3-.39-.4-1.17-.25-3.49-.64-5.77-1.15-6.86Z" fill="#bf2400"/><path d="M131.58,91.84q-1.76-10.25-3.71-24.17c0-.21,1-.47,2.92-.77h.2a42.36,42.36,0,0,0,.39,4.48q.44,10.73,2,10.72h.2a2.39,2.39,0,0,0,1.17-.38,57.91,57.91,0,0,1,2.93-6.25c.14,0,.46.78,1,2.34a36.94,36.94,0,0,0,1.75,5.87l-1.35.13c-.24-.49-.5-.74-.79-.74h-.4a1.51,1.51,0,0,0-1.17.58,33.29,33.29,0,0,0-2.14,7.6c0,.53-.84.79-2.54.79Z" fill="#bf2400"/><path d="M128.46,88.73l-3.11-20.28c-.18,0-.51-.32-1-1v-.2q0-2.15,7.22-3.12,2.14,0,2.14,4.49,0,1.18.58,7.22a15.54,15.54,0,0,1,3.13-4.09H138c1.34,0,2.38,2.07,3.12,6.23h.39q2.61-13.45,4.68-13.45a1.46,1.46,0,0,1,.58-.2c4.56,1.33,6.83,2.3,6.83,2.92a1.44,1.44,0,0,1,.19.59q-3.51,10.55-7.22,24.55,0,1.59-7,2.34-1.94,0-1.93-4.86-.4,0-1.17,3.69-.54,1-5.26,1-.21,0-.21.18c-.82,0-1.46-.79-1.91-2.36A20.49,20.49,0,0,1,128.46,88.73Zm-.59-21.06q1.95,13.92,3.71,24.17l.38.2c1.7,0,2.54-.26,2.54-.79a33.29,33.29,0,0,1,2.14-7.6,1.51,1.51,0,0,1,1.17-.58h.4c.29,0,.55.25.79.74.51,1.09.9,3.37,1.15,6.86.1.78.23,1.17.4,1.17,2.6,0,3.89-.32,3.89-1q3.51-13.49,6.43-22.22v-.2A17.63,17.63,0,0,0,147,67.08a121.84,121.84,0,0,0-4.09,16.77,1.59,1.59,0,0,1-1.37.79h-.39q-.33,0-.78-1a36.94,36.94,0,0,1-1.75-5.87c-.51-1.56-.83-2.34-1-2.34a57.91,57.91,0,0,0-2.93,6.25,2.39,2.39,0,0,1-1.17.38h-.2q-1.52,0-2-10.72A42.36,42.36,0,0,1,131,66.9h-.2C128.85,67.2,127.87,67.46,127.87,67.67Z" fill="#d47200"/><path d="M119.79,80.35c-.05-.37-.11-.74-.16-1.08l1.71-.29a60,60,0,0,0,3.71,14.43l-.39.18h-2.54c-.54-.14-1.39-2.15-2.53-6,0-2.55-1.59-4.13-4.75-4.73l.31-1.52a9.19,9.19,0,0,0,2.1.21h1.57A2,2,0,0,0,119.79,80.35Z" fill="#bf2400"/><path d="M112.77,79.38c.23-1.3.48-2.44.74-3.41q1.21-4.39,3-4.39t3.15,7.69c.05.34.11.71.16,1.08a2,2,0,0,1-1,1.17h-1.57a9.19,9.19,0,0,1-2.1-.21A2.88,2.88,0,0,1,112.77,79.38Z" fill="#771400"/><path d="M116.48,71.58q-1.76,0-3,4.39l-2.39-.71c.75-2.57,1.5-5,2.23-7.39,0-.92,1.89-1.37,5.65-1.37h.2q.7,0,2.14,12.48l-1.71.29Q118.39,71.58,116.48,71.58Z" fill="#bf2400"/><path d="M111.12,75.26l2.39.71c-.26,1-.51,2.11-.74,3.41a2.88,2.88,0,0,0,2.38,1.93l-.31,1.52c-.29-.06-.59-.1-.9-.14q-1.8,0-2.54,4.87-.59,6.43-1,6.43h-3.31a2.24,2.24,0,0,1-1.17-.4Q108.62,83.68,111.12,75.26Z" fill="#bf2400"/><path d="M111.4,87.56q.73-4.87,2.54-4.87c.31,0,.61.08.9.14,3.16.6,4.75,2.18,4.75,4.73,1.14,3.88,2,5.89,2.53,6h2.54l.39-.18A60,60,0,0,1,121.34,79Q119.9,66.5,119.2,66.5H119c-3.76,0-5.65.45-5.65,1.37-.73,2.36-1.48,4.82-2.23,7.39q-2.5,8.4-5.17,18.33a2.24,2.24,0,0,0,1.17.4h3.31Q110.82,94,111.4,87.56Zm.4-22.41c0-.53,2.15-.92,6.43-1.17h1.17c1.68,0,2.68,1.19,3,3.59a14.73,14.73,0,0,1,.11,1.85q2.16,15.08,3.12,18.14c.78,2,1.36,3.68,1.76,4.91A11,11,0,0,1,128,95c0,.92-2,1.37-6,1.37q-3.11,0-5.06-9.94a5.81,5.81,0,0,0-2.34-1,55.15,55.15,0,0,0-1.37,10.14,3.71,3.71,0,0,1-2.92,1h-2.72c-2.86,0-4.3-.91-4.3-2.73Q108.88,73,111.8,65.15Z" fill="#d47200"/><path d="M87.71,71h1.56c2.12,0,3.36,1,3.71,2.92,0,1.59-1.83,3-5.47,4.1h-.2Q86,78,86,76.45V73.71C86,71.9,86.54,71,87.71,71Z" fill="#771400"/><path d="M89.27,71H87.71C86.54,71,86,71.9,86,73.71v2.74Q86,78,87.31,78h.2C91.15,76.86,93,75.5,93,73.91,92.63,72,91.39,71,89.27,71Zm-.79,11.49a99,99,0,0,1,9.94,7.42v.39c-.39,0-.91.45-1.55,1.36q-.68,0-3.89-2.53Q88.69,85,87.9,85a1.38,1.38,0,0,0-1.56,1.56V87a35,35,0,0,0,1,6.43.16.16,0,0,0-.18.18l-.4-.18H85.37L84,93.21q-1.17-13.12-1.17-21.43A16.21,16.21,0,0,1,83,69.42c0-.91,2.33-1.5,7-1.75q6.83,0,6.82,5.08A6.92,6.92,0,0,1,93.36,79q-5.06,1.23-5.06,2v.59Z" fill="#bf2400"/><path d="M93.36,79a6.92,6.92,0,0,0,3.51-6.23q0-5.09-6.82-5.08c-4.68.25-7,.84-7,1.75a16.21,16.21,0,0,0-.21,2.36q0,8.3,1.17,21.43l1.37.2h1.36l.4.18a.16.16,0,0,1,.18-.18,35,35,0,0,1-1-6.43v-.4A1.38,1.38,0,0,1,87.9,85q.8,0,5.08,4.1,3.21,2.53,3.89,2.53c.64-.91,1.16-1.36,1.55-1.36V89.9a99,99,0,0,0-9.94-7.42l-.18-1v-.59Q88.3,80.21,93.36,79Zm-1,3.12q9.15,6.2,9.15,7.8,0,1.13-4.29,4.68H96.08q-4.47-3.31-6.81-5.26h-.2A23.79,23.79,0,0,1,89.85,94v.59c-.13,1-.59,1.55-1.37,1.55-1.82-.13-3.38-.2-4.68-.2h-.38q-2,0-2-2.34Q80.3,80.33,80.3,71.38q0-5.47,3.7-5.47a27.39,27.39,0,0,1,6.44-.76q6.34,0,8.57,5.06a21.78,21.78,0,0,1,.4,2.33q0,7.29-7,9.36Z" fill="#d47200"/><path d="M75.7,68.45v.2q-2.92,8.75-6.43,22.22c0,.65-1.3,1-3.89,1-.17,0-.3-.39-.4-1.17-.25-3.49-.64-5.77-1.16-6.86l1.36-.13c.3.64.55,1,.78,1h.39a1.61,1.61,0,0,0,1.37-.79,121.84,121.84,0,0,1,4.09-16.77A17.63,17.63,0,0,1,75.7,68.45Z" fill="#bf2400"/><path d="M56.21,71.38q.43,10.73,1.95,10.72h.2a2.39,2.39,0,0,0,1.17-.38,58.6,58.6,0,0,1,2.92-6.25c.15,0,.47.78,1,2.34a37.76,37.76,0,0,0,1.76,5.87l-1.36.13c-.23-.49-.49-.74-.78-.74h-.4a1.49,1.49,0,0,0-1.17.58,33.29,33.29,0,0,0-2.14,7.6c0,.53-.85.79-2.54.79l-.38-.2Q54.66,81.6,52.7,67.67c0-.21,1-.47,2.92-.77h.2A42.36,42.36,0,0,0,56.21,71.38Z" fill="#bf2400"/><path d="M61.29,93.59c-.36.66-2.11,1-5.27,1-.13,0-.2.06-.2.18-.74,0-1.33-.64-1.77-1.91a18.14,18.14,0,0,1-.77-4.12l-3.1-20.28c-.18,0-.51-.32-1-1v-.2q0-2.15,7.22-3.12c1.42,0,2.14,1.5,2.14,4.49q0,1.18.58,7.22a15.8,15.8,0,0,1,3.12-4.09h.59c1.34,0,2.38,2.07,3.12,6.23h.39Q68.94,64.56,71,64.56a1.54,1.54,0,0,1,.59-.2q6.83,2,6.83,2.92a1.61,1.61,0,0,1,.19.59q-3.51,10.55-7.22,24.55,0,1.59-7,2.34-1.94,0-1.94-4.86C62.19,89.9,61.8,91.13,61.29,93.59ZM75.7,68.45a17.63,17.63,0,0,0-3.89-1.37,121.84,121.84,0,0,0-4.09,16.77,1.61,1.61,0,0,1-1.37.79H66c-.23,0-.48-.32-.78-1a37.76,37.76,0,0,1-1.76-5.87c-.5-1.56-.82-2.34-1-2.34a58.6,58.6,0,0,0-2.92,6.25,2.39,2.39,0,0,1-1.17.38h-.2q-1.52,0-1.95-10.72a42.36,42.36,0,0,1-.39-4.48h-.2c-1.95.3-2.92.56-2.92.77q1.95,13.92,3.71,24.17l.38.2c1.69,0,2.54-.26,2.54-.79a33.29,33.29,0,0,1,2.14-7.6,1.49,1.49,0,0,1,1.17-.58H63c.29,0,.55.25.78.74.52,1.09.91,3.37,1.16,6.86.1.78.23,1.17.4,1.17,2.59,0,3.89-.32,3.89-1q3.51-13.49,6.43-22.22Z" fill="#d47200"/><path d="M46.17,79a59.49,59.49,0,0,0,3.71,14.43l-.39.18H47q-.81-.21-2.54-6,0-3.82-4.74-4.73L40,81.31a9.19,9.19,0,0,0,2.1.21h1.57a2,2,0,0,0,1-1.17c0-.37-.11-.74-.16-1.08Z" fill="#bf2400"/><path d="M44.61,80.35a2,2,0,0,1-1,1.17H42.08a9.19,9.19,0,0,1-2.1-.21,2.88,2.88,0,0,1-2.38-1.93c.23-1.3.48-2.44.74-3.41q1.21-4.39,3-4.39t3.14,7.69C44.5,79.61,44.56,80,44.61,80.35Z" fill="#771400"/><path d="M38.18,67.87c0-.92,1.88-1.37,5.65-1.37H44q.7,0,2.14,12.48l-1.72.29q-1.23-7.69-3.14-7.69-1.76,0-3,4.39L36,75.21Q37.09,71.38,38.18,67.87Z" fill="#bf2400"/><path d="M38.77,82.69c-1.21,0-2.05,1.62-2.54,4.87q-.58,6.43-1,6.43H32a2.24,2.24,0,0,1-1.17-.4Q33.47,83.64,36,75.21l2.39.76c-.26,1-.51,2.11-.74,3.41A2.88,2.88,0,0,0,40,81.31l-.31,1.52C39.38,82.77,39.08,82.73,38.77,82.69Z" fill="#bf2400"/><path d="M49.88,93.41A59.49,59.49,0,0,1,46.17,79Q44.73,66.5,44,66.5h-.2c-3.77,0-5.65.45-5.65,1.37Q37.09,71.38,36,75.21q-2.49,8.43-5.17,18.38A2.24,2.24,0,0,0,32,94h3.31q.39,0,1-6.43c.49-3.25,1.33-4.87,2.54-4.87.31,0,.61.08.9.14q4.74.9,4.74,4.73,1.73,5.82,2.54,6h2.54Zm-10.53-8A55.15,55.15,0,0,0,38,95.55a3.71,3.71,0,0,1-2.92,1H32.34q-4.31,0-4.3-2.73Q33.71,73,36.63,65.15q0-.8,6.43-1.17h1.17c1.68,0,2.68,1.19,3,3.59a14.73,14.73,0,0,1,.11,1.85q2.14,15.08,3.12,18.14,1.32,3.45,1.89,5.35a8.78,8.78,0,0,1,.45,2c0,.92-2,1.37-6,1.37q-3.11,0-5.06-9.94A5.81,5.81,0,0,0,39.35,85.41Z" fill="#d47200"/><path d="M12.54,71h1.55c2.13,0,3.37,1,3.71,2.92,0,1.59-1.82,3-5.46,4.1h-.2q-1.35,0-1.35-1.56V73.71C10.79,71.9,11.37,71,12.54,71Z" fill="#771400"/><path d="M12.34,78c3.64-1.15,5.46-2.51,5.46-4.1C17.46,72,16.22,71,14.09,71H12.54c-1.17,0-1.75.91-1.75,2.72v2.74q0,1.56,1.35,1.56ZM21.7,91.65q-.68,0-3.9-2.53Q13.52,85,12.72,85a1.38,1.38,0,0,0-1.55,1.56V87a34.1,34.1,0,0,0,1,6.43.16.16,0,0,0-.18.18l-.4-.18H10.2l-1.37-.2Q7.66,80.08,7.66,71.78a17.53,17.53,0,0,1,.2-2.36c0-.91,2.34-1.5,7-1.75,4.54,0,6.82,1.69,6.82,5.08A6.92,6.92,0,0,1,18.19,79c-3.38.82-5.06,1.47-5.06,2v.59l.18,1a99,99,0,0,1,9.94,7.42v.39C22.86,90.29,22.34,90.74,21.7,91.65Z" fill="#bf2400"/><path d="M17.22,82.1q9.15,6.2,9.15,7.8,0,1.13-4.29,4.68H20.91q-4.47-3.31-6.82-5.26h-.2A23.26,23.26,0,0,1,14.68,94v.59c-.13,1-.59,1.55-1.37,1.55-1.83-.13-3.39-.2-4.68-.2H8.25c-1.3,0-2-.78-2-2.34Q5.12,80.33,5.12,71.38q0-5.47,3.71-5.47a27.37,27.37,0,0,1,6.43-.76q6.36,0,8.57,5.06a19.25,19.25,0,0,1,.4,2.33q0,7.29-7,9.36Zm1-3.12a6.92,6.92,0,0,0,3.51-6.23c0-3.39-2.28-5.08-6.82-5.08-4.68.25-7,.84-7,1.75a17.53,17.53,0,0,0-.2,2.36q0,8.3,1.17,21.43l1.37.2h1.36l.4.18a.16.16,0,0,1,.18-.18,34.1,34.1,0,0,1-1-6.43v-.4A1.38,1.38,0,0,1,12.72,85q.81,0,5.08,4.1,3.22,2.53,3.9,2.53c.64-.91,1.16-1.36,1.55-1.36V89.9a99,99,0,0,0-9.94-7.42l-.18-1v-.59C13.13,80.45,14.81,79.8,18.19,79Z" fill="#d47200"/><path d="M32.11,51.88a82.11,82.11,0,0,0,5.28-9.37c.35-.76.92-1.49.36-2.4a2.41,2.41,0,0,1,.3-1.82c4.29-8.14,1.4-14.8-4.33-20.85a25.1,25.1,0,0,0-4.38-4c-.39-.25-.8-.57-.57-1.15,1.4-1.86,3.38-1.49,5.22-1.19,6.91,1.12,13.1,4.15,19.19,7.4a3,3,0,0,0,3.4.06C67.65,12.48,79.3,11,91.47,14.69a2.85,2.85,0,0,0,3.27-.91C99.41,9.23,104.32,5,110.12,1.9c2.1-1.1,4.25-2.69,6.9-1.45.7,1.12-.24,1.81-.77,2.5a32.37,32.37,0,0,0-4.9,10.53A13.61,13.61,0,0,0,114.29,27c.87,1,1.87,2,1.42,3.58a2.9,2.9,0,0,0,.06,3.25c3.12,6,5.48,12.43,9.38,18-.42,1.67-1.8,1-2.71.93-7.35-.12-13.87,2.58-18.53,4.71a44.52,44.52,0,0,1,22.27-4.74,18,18,0,0,1,19.28,5.8c1.95,2.43,3.4,5.09,1.71,8.26-1.27,2.37-6.31,4.44-9.2,3.79a3.37,3.37,0,0,0-2.87.33,3.31,3.31,0,0,1-2.52.53c-4.36-1.16-9-1.53-12.85-4.17-2.41-1.66-3.81-4-2.79-7.18-1.62-.82-3.34-.19-5-.37-1.3-.14-2.65.21-4-.27,1.35-1.11,4.56-1.86,8.75-2.13-4.19.17-8.17,1.49-12.23,2.37-7.46,0-14.92,0-22.38,0-2.67,0-3.29-1-2.07-3.39.35-.69,1.11-1.39.53-2.16s-1.72-.67-2.66-.52c-1.27.19-1.57.91-.95,2,.08.14.17.27.24.41,1.37,2.72.9,3.54-2.11,3.64-5.62,0-11.25-.12-16.87,0a37.73,37.73,0,0,1-11.45-1.48c-1.84-.52-3.76-.49-4.73-.77,1.88.34,4.7.53,7.31,1.71-3,1-6-.1-9,.86,1.06,4.66-3.36,9.65-8.41,9.34a3.1,3.1,0,0,0-2.52.79,3.92,3.92,0,0,1-3,1.15c-4.32-.78-8.88,0-13-1.94s-5.08-5.17-2.76-9.15c3.34-5.71,10.78-9.19,17.54-8.19.54.08,1.09.21,1.63.31a7.73,7.73,0,0,0,3,.37c7.67-.39,14.65,2,21.47,5.14.24.11.55.38.74.11-2.53-.74-4.91-2-7.42-2.88a36.47,36.47,0,0,0-13-2.36C33.73,52.84,32.42,53.49,32.11,51.88Z"/><path d="M28.77,12.31A30.89,30.89,0,0,1,39.21,24.07c2.92,5.66,1.41,10.91-1.46,16C31,32.88,28,24.16,27.85,14.4A2.39,2.39,0,0,1,28.77,12.31Z" fill="#4c4c4c"/><path d="M115.71,30.59a2.78,2.78,0,0,0-.85-1.91c-6.69-6.71-5.36-14-1.83-21.63,1.1-2.36,3-4.2,4-6.6,3,2,2.37,5.23,2.82,8.1-.19,2.54,0,5.07,0,7.61A31.73,31.73,0,0,1,115.71,30.59Z" fill="#4c4c4c"/><path d="M75.07,59.62c.78-.22,1.83.22,2.27-.88s-.21-1.79-1-2.43a2,2,0,0,1-.8-2.32c.35-1,1.29-1.06,2.18-1.09.63,0,1.27,0,1.9,0,.8,0,1.66,0,2,.92A2.09,2.09,0,0,1,81,56.19c-.76.72-1.65,1.4-1,2.61s1.67.73,2.56.73c7.3,0,14.6,0,21.9-.06,1,.15,2.25-1.11,3,.46H75.06Z" fill="#4b4b4b"/><path d="M75.07,59.62c0,.1,0,.21,0,.32L43.65,60c-1.11,0-2.22.07-3.33.11,1.36-1.21,3-.4,4.48-.56,1.32-.13,2.67,0,4-.14-3.33-1-6.94-.81-10.16-2.25a9.44,9.44,0,0,1,6.48.2c7.69,2.69,15.61,2.12,23.51,2.16C70.79,59.55,72.93,59.59,75.07,59.62Z" fill="#484848"/><path d="M32.11,51.88c.82,1,1.93.53,2.88.48,7.57-.4,14.14,2.56,20.77,5.87-.78.7-1.33.23-1.85,0-6.68-2.74-13.42-5.15-20.81-4.91a5.1,5.1,0,0,1-3.36-.89C30.59,52.5,31.47,52.7,32.11,51.88Z" fill="#4b4b4b"/><path d="M126.18,52.79c-2.27,1.06-4.71.38-7.05.73A64,64,0,0,0,103.91,58c-.7.29-1.37.88-2.54.29,6-3,11.83-5.68,18.5-5.95,1.76-.07,3.61.66,5.28-.46Z" fill="#4b4b4b"/><path d="M107.48,59.93c-.93-.74-2-.22-3-.46a41.59,41.59,0,0,1,14.12-2.78c-.49.81-.49.82-4.67,1.61a36.83,36.83,0,0,0-5.32,1.24c2.1,0,4.2,0,6.3,0,.71,0,1.63-.44,2.07.59Z" fill="#484848"/><path d="M119.89,16.16a13.5,13.5,0,0,1,0-7.61A21.38,21.38,0,0,1,119.89,16.16Z" fill="#3e3e3e"/><path d="M60.42,53.87c-5.53-.36-10.1-2.43-13.19-7.26a4.7,4.7,0,0,1-.1-5.35c2.48-4.15,5.91-6.77,10.9-7s8.41,2.34,10.86,6.43a21.47,21.47,0,0,1,1.37,2.76c1.75,4.25,1.16,6-2.81,8.45A12.52,12.52,0,0,1,60.42,53.87Z" fill="#bf2400"/><path d="M97.42,53.87c-4.56,0-7.87-1.45-10.49-4.45a3.51,3.51,0,0,1-.78-3.74,23.68,23.68,0,0,1,3.27-6.58,11.13,11.13,0,0,1,11.23-4.72c4.89.76,8.09,3.8,10.08,8.19.67,1.46,0,2.8-.73,4C107,51.48,102.34,53.49,97.42,53.87Z" fill="#bf2400"/><path d="M52.58,44.36a7.05,7.05,0,0,1,7.17-7.24,7.17,7.17,0,1,1-.07,14.33A7.09,7.09,0,0,1,52.58,44.36Z"/><path d="M104.68,44.2a7.09,7.09,0,0,1-7,7.25,7.17,7.17,0,1,1-.39-14.33A7.07,7.07,0,0,1,104.68,44.2Z"/></svg>