<?xml version="1.0" encoding="utf-8"?>
<!-- Generator: Adobe Illustrator 26.3.1, SVG Export Plug-In . SVG Version: 6.00 Build 0)  -->
<svg version="1.1" id="Layer_1" xmlns="http://www.w3.org/2000/svg" xmlns:xlink="http://www.w3.org/1999/xlink" x="0px" y="0px"
	 viewBox="0 0 99.9 99.9" style="enable-background:new 0 0 99.9 99.9;" xml:space="preserve">
<style type="text/css">
	.st0{fill:#FBD40C;}
	.st1{fill:#151518;}
</style>
<path class="st0" d="M99.9,46.9v6.3c-0.2,1-0.3,1.9-0.4,2.9C98.1,67.7,92.6,78.4,84,86.4c-7.3,6.9-16.6,11.4-26.6,12.9
	c-1.4,0.1-2.8,0.3-4.2,0.6h-7.6c-0.2-0.4-0.6-0.3-0.9-0.3C39,99,33.4,97.4,28.2,94.8C12.6,87,3.4,74.3,0.5,57.1
	c-0.1-1.2-0.2-2.5-0.5-3.7v-6.7c0.3-0.2,0.2-0.4,0.2-0.7c1-13.4,7.4-25.8,17.8-34.4c6.9-5.8,15.3-9.6,24.2-11
	c1.5-0.1,3.1-0.4,4.6-0.7h6.5c0.1,0.2,0.4,0.2,0.6,0.2c8.5,0.6,16.6,3.4,23.7,8.2c12.3,8.3,19.6,19.9,22,34.6
	C99.5,44.2,99.6,45.6,99.9,46.9z M81.3,65.9l0.2-0.2c-0.6-6.1-4.6-10-9.4-9.2c1.3,1.3,2.5,2.5,3.7,3.7c0.5,0.5,0.4,0.8,0.1,1.2
	c-3.3,4.5-7.9,8-13.1,10c-8,3.2-17,3.3-25.1,0.2c-5.6-2-10.6-5.6-14.3-10.3c-0.4-0.5-0.4-0.8,0.1-1.2c1.2-1.2,2.4-2.3,3.6-3.5
	c0.2-0.2,0.5-0.3,0.4-0.6c-5.7,0-9.3,3.7-9.3,9.6c0.8-0.8,1.4-1.4,2-2.2s0.8-0.5,1.1,0.1c3.4,5.3,8.1,9.6,13.6,12.6
	c10.4,5.5,20.8,5.4,31-0.6c4.9-3,9.1-7.2,12-12.2c0.3-0.5,0.5-0.6,0.9-0.1C79.7,64.1,80.5,65,81.3,65.9L81.3,65.9z M69,37.8
	c0-1.5-0.2-3.1-0.5-4.6c-0.6-2.4-1.3-4.6-3.2-6.3c-1.4-1.4-3.5-1.4-5-0.2c-1,0.8-1.8,1.8-2.3,3c-2.1,4.9-2.3,10.5-0.3,15.4
	c0.5,1.5,1.4,2.8,2.6,3.8c1.4,1.1,3.3,1.1,4.7-0.1c0.7-0.5,1.2-1.1,1.7-1.8C68.3,44.2,69.1,41,69,37.8z M43.5,38.1
	c0-1.2-0.1-2.4-0.2-3.6c-0.3-2.6-1.3-5-2.9-7c-1.8-2.1-4.2-2.1-6.2-0.1c-0.8,0.8-1.4,1.7-1.8,2.7c-1.4,3.4-1.9,7.1-1.3,10.7
	c0.2,2.7,1.2,5.2,2.8,7.3c1.2,1.8,3.6,2.3,5.4,1.1c0.3-0.2,0.6-0.5,0.8-0.7c0.4-0.4,0.7-0.8,1-1.2C42.8,44.4,43.6,41.3,43.5,38.1
	L43.5,38.1z"/>
<path class="st1" d="M81.3,65.8c-0.8-0.9-1.6-1.8-2.4-2.7c-0.4-0.5-0.6-0.4-0.9,0.1c-2.9,5-7,9.2-12,12.2c-10.2,6-20.5,6.1-31,0.6
	c-5.5-3-10.2-7.4-13.6-12.6c-0.4-0.6-0.6-0.7-1.1-0.1c-0.5,0.6-1.2,1.4-2,2.2c0-5.9,3.6-9.5,9.3-9.6c0,0.3-0.3,0.4-0.4,0.6
	c-1.2,1.2-2.4,2.4-3.6,3.5c-0.5,0.4-0.5,0.7-0.1,1.2c3.8,4.7,8.8,8.2,14.4,10.2c8.1,3.1,17,3,25.1-0.2c5.2-2,9.8-5.5,13.1-10
	c0.4-0.5,0.4-0.8-0.1-1.2c-1.3-1.2-2.5-2.4-3.7-3.7c4.9-0.8,8.8,3,9.4,9.1L81.3,65.8z"/>
<path class="st1" d="M69,37.8c0.1,3.2-0.7,6.4-2.3,9.2c-0.5,0.7-1,1.3-1.7,1.8c-1.3,1.2-3.3,1.2-4.7,0.1c-1.2-1-2.1-2.3-2.6-3.8
	c-1.9-5-1.8-10.5,0.4-15.4c0.5-1.2,1.3-2.2,2.3-3c1.5-1.3,3.6-1.2,5,0.2c1.9,1.7,2.7,4,3.2,6.3C68.8,34.7,69,36.2,69,37.8z"/>
<path class="st1" d="M43.5,38.1c0.1,3.2-0.8,6.3-2.4,9.1c-0.3,0.4-0.6,0.8-1,1.2c-1.4,1.6-3.9,1.8-5.5,0.4c-0.3-0.2-0.5-0.5-0.7-0.8
	c-1.6-2.1-2.6-4.7-2.8-7.4C30.6,37,31,33.4,32.4,30c0.4-1,1-1.9,1.8-2.7c2-2,4.3-2,6.2,0.1c1.6,2,2.6,4.4,2.9,7
	C43.4,35.7,43.5,36.9,43.5,38.1z"/>
</svg>
