<svg xmlns="http://www.w3.org/2000/svg" viewBox="0 0 175.64 142.31"><path d="M175.59,32.52q0,48.42,0,96.85c0,6.81-6.47,12.93-13.46,12.93H13.63A13.78,13.78,0,0,1,0,128.75Q0,81.56,0,34.36c0-.63,0-1.26,0-1.89q16.42,0,32.85,0,17,0,34-.05c.81,0,1.63.11,2.45.11h70.33ZM79.82,98.4c-2.08,0-4.16,0-6.23-.08-1.38-.08-1.68.48-1.67,1.75.06,6.67,0,13.34,0,20a9.16,9.16,0,0,0,1.59,5.15c2.52,3.81,8,5.28,13.25,3.58A8.91,8.91,0,0,0,93,120.65c.1-7,0-14,.06-21,0-1.13-.47-1.39-1.47-1.36-2.14.06-4.28,0-6.42.07,0-3,0-6.05-.08-9.07,0-1.29.46-1.51,1.6-1.61C102.36,86.38,118,85,133.6,83.61c2.49-.22,3.33-1.09,3.34-3.62q0-10.12,0-20.23c0-2.55-.89-3.5-3.37-3.52-3.91,0-7.81,0-11.72,0,0-1.26,0-2.52-.09-3.78-.1-3.79-2.39-6.19-6.15-6.19q-34,0-68.09,0c-3.79,0-6.14,2.4-6.18,6.16q0,6.44,0,12.86c0,3.78,2.4,6.19,6.14,6.19q34.05,0,68.09,0c3.76,0,6.08-2.34,6.19-6.14,0-1.26.06-2.52.09-3.78,2.58,0,5.16.09,7.74,0,1.53-.07,2.08.33,2,2-.12,4.34-.11,8.69,0,13,0,1.49-.47,2-1.87,2.06-6.27.5-12.54,1.09-18.81,1.63-9.28.81-18.56,1.59-27.83,2.42-2.57.24-3.25,1.08-3.26,3.65Q79.83,92.36,79.82,98.4Z" fill="#e0f6fe"/><path d="M82.07.06,108,0h56.52c5.34,0,11,5.34,11.12,10.65.1,7.18,0,14.36,0,21.55l-2.46,0q-51.67,0-103.35,0c-.83,0-1.78.36-2.48-.47.14-.35.27-.71.43-1.05ZM127,13.63h-5.48q-13.89,0-27.79,0c-1.85,0-3.23,1.19-3.19,2.7s1.34,2.53,3.15,2.59h66a4.37,4.37,0,0,0,2.72-.56,2.47,2.47,0,0,0,1.11-2.79,2.37,2.37,0,0,0-2.27-1.93c-.57-.05-1.14,0-1.7,0Z" fill="#a3ddf6"/><path d="M82.07.06,67.7,30.64c-.16.34-.29.7-.43,1.05l-.38.75q-17,0-34,.05-16.42,0-32.85,0c0-7-.13-14,0-21A11.94,11.94,0,0,1,12.27,0Q34.11,0,56,0ZM23.62,10.21a6.06,6.06,0,0,0-6.12,6.07,6.21,6.21,0,0,0,6,6,6.06,6.06,0,0,0,6.05-6.13A6,6,0,0,0,23.62,10.21Zm24.21,0a6,6,0,0,0-6,6,6.06,6.06,0,1,0,12.11-.11A6.05,6.05,0,0,0,47.83,10.21Z" fill="#0181cf"/><path d="M66.89,32.44l.38-.75c.7.83,1.65.47,2.48.47q51.68,0,103.35,0l2.46,0a.85.85,0,0,1,0,.32l-35.92,0H69.34C68.52,32.55,67.7,32.48,66.89,32.44Z" fill="#87cdef"/><path d="M121.85,61.58c0,1.26,0,2.52-.09,3.78-.11,3.8-2.43,6.14-6.19,6.14q-34,0-68.09,0c-3.74,0-6.11-2.41-6.14-6.19q0-6.42,0-12.86c0-3.76,2.39-6.15,6.18-6.16q34,0,68.09,0c3.76,0,6,2.4,6.15,6.19,0,1.26.06,2.52.09,3.78A27.71,27.71,0,0,0,121.85,61.58Z" fill="#f2734a"/><path d="M85.21,98.4c2.14,0,4.28,0,6.42-.07,1,0,1.48.23,1.47,1.36,0,7,0,14-.06,21a8.91,8.91,0,0,1-6.25,8.16c-5.25,1.7-10.73.23-13.25-3.58A9.16,9.16,0,0,1,72,120.08c0-6.67,0-13.34,0-20,0-1.27.29-1.83,1.67-1.75,2.07.11,4.15.06,6.23.08Z" fill="#5ab7e7"/><path d="M85.21,98.4H79.82q0-6,0-12.09c0-2.57.69-3.41,3.26-3.65,9.27-.83,18.55-1.61,27.83-2.42,6.27-.54,12.54-1.13,18.81-1.63,1.4-.11,1.9-.57,1.87-2.06-.11-4.34-.12-8.69,0-13,0-1.63-.51-2-2-2-2.58.11-5.16,0-7.74,0a27.71,27.71,0,0,1,0-5.31c3.91,0,7.81-.06,11.72,0,2.48,0,3.36,1,3.37,3.52q0,10.11,0,20.23c0,2.53-.85,3.4-3.34,3.62C118,85,102.36,86.38,86.73,87.72c-1.14.1-1.64.32-1.6,1.61C85.25,92.35,85.2,95.38,85.21,98.4Z" fill="#0483d0"/><path d="M127,13.63h32.52c.56,0,1.13,0,1.7,0a2.37,2.37,0,0,1,2.27,1.93,2.47,2.47,0,0,1-1.11,2.79,4.37,4.37,0,0,1-2.72.56h-66c-1.81-.06-3.12-1.14-3.15-2.59s1.34-2.7,3.19-2.7q13.91,0,27.79,0Z" fill="#59b7e7"/><path d="M23.62,10.21a6,6,0,0,1,6,6,6.06,6.06,0,0,1-6.05,6.13,6.21,6.21,0,0,1-6-6A6.06,6.06,0,0,1,23.62,10.21Z" fill="#ee724b"/><path d="M47.83,10.21a6.05,6.05,0,0,1,6.11,5.92,6.06,6.06,0,1,1-12.11.11A6,6,0,0,1,47.83,10.21Z" fill="#faca5c"/></svg>