<svg xmlns="http://www.w3.org/2000/svg" viewBox="0 0 158.92 90.41"><path d="M153.62,60.93a1.52,1.52,0,0,1,.18.58q-3.51,10.55-7.21,24.56,0,1.58-7,2.33-1.94,0-1.94-4.86c-.26,0-.66,1.23-1.17,3.7-.35.65-2.11,1-5.26,1-.13,0-.2.06-.2.18-.82,0-1.46-.79-1.91-2.36a19.53,19.53,0,0,1-.63-3.67L125.35,62.1c-.17,0-.5-.33-1-1v-.2c0-1.44,2.4-2.48,7.22-3.13q2.13,0,2.13,4.5,0,1.19.59,7.21a15.8,15.8,0,0,1,3.12-4.09H138q2,0,3.12,6.23h.38q2.61-13.46,4.68-13.45a1.49,1.49,0,0,1,.59-.2C151.34,59.33,153.62,60.3,153.62,60.93Zm-2.74,1.37v-.2A17.91,17.91,0,0,0,147,60.72a121.45,121.45,0,0,0-4.1,16.78,1.59,1.59,0,0,1-1.37.78h-.38q-.33,0-.78-1a36.67,36.67,0,0,1-1.76-5.87c-.5-1.56-.82-2.34-1-2.34a58.6,58.6,0,0,0-2.92,6.25,2.45,2.45,0,0,1-1.17.38h-.2q-1.51,0-2-10.72a44.45,44.45,0,0,1-.38-4.48h-.2c-2,.3-2.92.56-2.92.77q2,13.93,3.71,24.17l.38.2c1.69,0,2.54-.26,2.54-.78a32.63,32.63,0,0,1,2.14-7.6,1.5,1.5,0,0,1,1.17-.59h.4c.29,0,.55.25.78.74.52,1.09.9,3.37,1.15,6.86.11.78.24,1.17.41,1.17,2.59,0,3.89-.32,3.89-1Q148,71,150.88,62.3Z" fill="#553600"/><path d="M150.88,62.1v.2Q148,71,144.45,84.51c0,.65-1.3,1-3.89,1-.17,0-.3-.39-.41-1.17-.25-3.49-.63-5.77-1.15-6.86l1.36-.13q.45,1,.78,1h.38a1.59,1.59,0,0,0,1.37-.78A121.45,121.45,0,0,1,147,60.72,17.91,17.91,0,0,1,150.88,62.1Z" fill="#e99000"/><path d="M140.36,77.32l-1.36.13c-.23-.49-.49-.74-.78-.74h-.4a1.5,1.5,0,0,0-1.17.59,32.63,32.63,0,0,0-2.14,7.6c0,.52-.85.78-2.54.78l-.38-.2q-1.76-10.24-3.71-24.17c0-.21,1-.47,2.92-.77h.2a44.45,44.45,0,0,0,.38,4.48q.44,10.73,2,10.72h.2a2.45,2.45,0,0,0,1.17-.38,58.6,58.6,0,0,1,2.92-6.25c.15,0,.47.78,1,2.34A36.67,36.67,0,0,0,140.36,77.32Z" fill="#e99000"/><path d="M127.4,86.11A11,11,0,0,1,128,88.6c0,.92-2,1.37-6,1.37q-3.11,0-5.06-9.93a5.8,5.8,0,0,0-2.34-1,55.15,55.15,0,0,0-1.37,10.14,3.69,3.69,0,0,1-2.92,1h-2.73q-4.29,0-4.29-2.72,5.67-20.79,8.59-28.65,0-.8,6.43-1.17h1.17c1.68,0,2.68,1.19,3,3.59a14.73,14.73,0,0,1,.11,1.85q2.16,15.07,3.13,18.14C126.42,83.24,127,84.88,127.4,86.11Zm-2.73,1.13.38-.19a60,60,0,0,1-3.71-14.43c-1-8.32-1.67-12.48-2.13-12.48H119q-5.66,0-5.65,1.37-1.1,3.51-2.23,7.35-2.5,8.42-5.17,18.38a2.28,2.28,0,0,0,1.17.4h3.31c.25,0,.58-2.15,1-6.44q.74-4.87,2.53-4.87c.31,0,.61.08.9.14,3.17.61,4.75,2.18,4.75,4.73,1.15,3.88,2,5.89,2.54,6Z" fill="#553600"/><path d="M125.05,87.05l-.38.19h-2.54c-.55-.15-1.39-2.16-2.54-6,0-2.55-1.58-4.12-4.75-4.73l.31-1.52a9.25,9.25,0,0,0,2.1.21h1.57a2,2,0,0,0,1-1.17c-.05-.37-.11-.74-.16-1.08l1.71-.29A60,60,0,0,0,125.05,87.05Z" fill="#e99000"/><path d="M121.34,72.62l-1.71.29q-1.25-7.69-3.15-7.69c-1.17,0-2.15,1.46-3,4.39l-2.39-.75q1.14-3.84,2.23-7.35,0-1.36,5.65-1.37h.2C119.67,60.14,120.39,64.3,121.34,72.62Z" fill="#e99000"/><path d="M119.63,72.91c.05.34.11.71.16,1.08a2,2,0,0,1-1,1.17h-1.57a9.25,9.25,0,0,1-2.1-.21A2.88,2.88,0,0,1,112.78,73c.23-1.3.48-2.44.74-3.41.81-2.93,1.79-4.39,3-4.39S118.8,67.78,119.63,72.91Z" fill="#553600"/><path d="M115.15,75l-.31,1.52c-.29-.06-.59-.1-.9-.14q-1.8,0-2.53,4.87c-.39,4.29-.72,6.44-1,6.44h-3.31a2.28,2.28,0,0,1-1.17-.4q2.67-10,5.17-18.38l2.39.75c-.26,1-.51,2.11-.74,3.41A2.88,2.88,0,0,0,115.15,75Z" fill="#e99000"/><path d="M101.55,83.54q0,1.13-4.29,4.68H96.09Q91.6,84.92,89.27,83h-.2a24,24,0,0,1,.79,4.68v.58c-.14,1-.59,1.55-1.37,1.55-1.83-.13-3.39-.2-4.68-.2h-.39c-1.3,0-2-.78-2-2.33Q80.3,74,80.3,65q0-5.46,3.71-5.46a26.86,26.86,0,0,1,6.43-.77q6.34,0,8.57,5.06a18.93,18.93,0,0,1,.4,2.34q0,7.28-7,9.35v.2Q101.55,81.94,101.55,83.54Zm-3.12.39v-.39a99.21,99.21,0,0,0-9.94-7.41l-.19-1v-.59q0-.72,5.06-1.95a6.92,6.92,0,0,0,3.51-6.23q0-5.09-6.81-5.08-7,.39-7,1.75a17.53,17.53,0,0,0-.2,2.36q0,8.3,1.17,21.43l1.37.2h1.35l.4.19a.17.17,0,0,1,.19-.19,34,34,0,0,1-1-6.43v-.4a1.37,1.37,0,0,1,1.55-1.55q.81,0,5.08,4.09,3.22,2.53,3.89,2.54C97.52,84.38,98,83.93,98.43,83.93Z" fill="#553600"/><path d="M98.43,83.54v.39c-.39,0-.91.45-1.56,1.37q-.66,0-3.89-2.54-4.28-4.1-5.08-4.09a1.37,1.37,0,0,0-1.55,1.55v.4a34,34,0,0,0,1,6.43.17.17,0,0,0-.19.19l-.4-.19H85.38L84,86.85q-1.17-13.12-1.17-21.43a17.53,17.53,0,0,1,.2-2.36q0-1.37,7-1.75,6.81,0,6.81,5.08a6.92,6.92,0,0,1-3.51,6.23q-5.06,1.23-5.06,1.95v.59l.19,1A99.21,99.21,0,0,1,98.43,83.54ZM93,67.56c-.35-2-1.58-2.93-3.71-2.93H87.72c-1.17,0-1.76.91-1.76,2.73V70.1c0,1,.46,1.55,1.36,1.55h.2Q93,69.93,93,67.56Z" fill="#e99000"/><path d="M89.27,64.63c2.13,0,3.36,1,3.71,2.93q0,2.37-5.46,4.09h-.2c-.9,0-1.36-.52-1.36-1.55V67.36c0-1.82.59-2.73,1.76-2.73Z" fill="#553600"/><path d="M78.45,60.93a1.52,1.52,0,0,1,.18.58q-3.51,10.55-7.22,24.56c0,1.05-2.33,1.83-7,2.33q-1.94,0-1.94-4.86c-.27,0-.66,1.23-1.17,3.7q-.54,1-5.26,1c-.13,0-.2.06-.2.18-.74,0-1.33-.64-1.78-1.91a18.8,18.8,0,0,1-.76-4.12L50.18,62.1c-.18,0-.5-.33-1-1v-.2q0-2.16,7.21-3.13,2.15,0,2.14,4.5,0,1.19.59,7.21a15.8,15.8,0,0,1,3.12-4.09h.58q2,0,3.13,6.23h.38Q69,58.19,71,58.2a1.51,1.51,0,0,1,.58-.2C76.17,59.33,78.45,60.3,78.45,60.93ZM75.71,62.3v-.2a18,18,0,0,0-3.9-1.38A123.15,123.15,0,0,0,67.72,77.5a1.59,1.59,0,0,1-1.37.78H66c-.23,0-.48-.32-.78-1a36.67,36.67,0,0,1-1.76-5.87c-.5-1.56-.82-2.34-1-2.34a56.57,56.57,0,0,0-2.92,6.25,2.45,2.45,0,0,1-1.17.38h-.2q-1.53,0-2-10.72a44.45,44.45,0,0,1-.38-4.48h-.2c-2,.3-2.93.56-2.93.77q2,13.93,3.71,24.17l.39.2c1.69,0,2.54-.26,2.54-.78a32.72,32.72,0,0,1,2.13-7.6,1.53,1.53,0,0,1,1.17-.59h.41c.29,0,.55.25.78.74.52,1.09.9,3.37,1.15,6.86.1.78.24,1.17.4,1.17,2.6,0,3.9-.32,3.9-1Q72.78,71,75.71,62.3Z" fill="#553600"/><path d="M75.71,62.1v.2Q72.79,71,69.28,84.51c0,.65-1.3,1-3.9,1-.16,0-.3-.39-.4-1.17-.25-3.49-.63-5.77-1.15-6.86l1.36-.13c.3.64.55,1,.78,1h.38a1.59,1.59,0,0,0,1.37-.78,123.15,123.15,0,0,1,4.09-16.78A18,18,0,0,1,75.71,62.1Z" fill="#e99000"/><path d="M65.19,77.32l-1.36.13c-.23-.49-.49-.74-.78-.74h-.41a1.53,1.53,0,0,0-1.17.59,32.72,32.72,0,0,0-2.13,7.6c0,.52-.85.78-2.54.78l-.39-.2Q54.66,75.24,52.7,61.31c0-.21,1-.47,2.93-.77h.2A44.45,44.45,0,0,0,56.21,65q.43,10.73,2,10.72h.2a2.45,2.45,0,0,0,1.17-.38,56.57,56.57,0,0,1,2.92-6.25c.15,0,.47.78,1,2.34A36.67,36.67,0,0,0,65.19,77.32Z" fill="#e99000"/><path d="M52.36,86.55a9,9,0,0,1,.44,2c0,.92-2,1.37-6,1.37Q43.66,90,41.7,80a5.8,5.8,0,0,0-2.34-1A54.29,54.29,0,0,0,38,89.19a3.7,3.7,0,0,1-2.93,1H32.34q-4.29,0-4.29-2.72,5.65-20.79,8.58-28.65,0-.8,6.44-1.17h1.17c1.68,0,2.68,1.19,3,3.59a14.73,14.73,0,0,1,.11,1.85Q49.5,78.13,50.47,81.2,51.79,84.65,52.36,86.55Zm-2.86.69.38-.19a60,60,0,0,1-3.71-14.43Q44.75,60.14,44,60.14h-.2q-5.64,0-5.64,1.37Q37.1,65,36,68.86q-2.51,8.42-5.17,18.38a2.28,2.28,0,0,0,1.17.4h3.3q.39,0,1-6.44.74-4.87,2.54-4.87l.91.14c3.16.61,4.74,2.18,4.74,4.73,1.15,3.88,2,5.89,2.54,6Z" fill="#553600"/><path d="M49.88,87.05l-.38.19H47c-.55-.15-1.39-2.16-2.54-6,0-2.55-1.58-4.12-4.74-4.73L40,75a9.16,9.16,0,0,0,2.09.21h1.57a2,2,0,0,0,1-1.17c0-.37-.11-.74-.16-1.08l1.71-.29A60,60,0,0,0,49.88,87.05Z" fill="#e99000"/><path d="M46.17,72.62l-1.71.29q-1.24-7.69-3.15-7.69c-1.17,0-2.15,1.46-3,4.39L36,68.86Q37.1,65,38.19,61.51q0-1.36,5.64-1.37H44Q44.74,60.14,46.17,72.62Z" fill="#e99000"/><path d="M44.46,72.91c0,.34.11.71.16,1.08a2,2,0,0,1-1,1.17H42.08A9.16,9.16,0,0,1,40,75,2.91,2.91,0,0,1,37.6,73c.23-1.3.48-2.44.75-3.41.81-2.93,1.79-4.39,3-4.39S43.63,67.78,44.46,72.91Z" fill="#553600"/><path d="M40,75l-.31,1.52-.91-.14q-1.8,0-2.54,4.87-.58,6.43-1,6.44H32a2.28,2.28,0,0,1-1.17-.4q2.67-10,5.17-18.38l2.39.75c-.27,1-.52,2.11-.75,3.41A2.91,2.91,0,0,0,40,75Z" fill="#e99000"/><path d="M26.38,83.54q0,1.13-4.3,4.68H20.92Q16.43,84.92,14.1,83h-.2a23.74,23.74,0,0,1,.78,4.68v.58c-.13,1-.59,1.55-1.37,1.55-1.82-.13-3.38-.2-4.67-.2H8.25c-1.3,0-1.95-.78-1.95-2.33Q5.13,74,5.13,65q0-5.46,3.71-5.46a26.8,26.8,0,0,1,6.43-.77q6.35,0,8.57,5.06a18.93,18.93,0,0,1,.4,2.34q0,7.28-7,9.35v.2Q26.39,81.94,26.38,83.54Zm-3.13.39v-.39a98,98,0,0,0-9.94-7.41l-.18-1v-.59q0-.72,5.06-1.95a6.92,6.92,0,0,0,3.51-6.23q0-5.09-6.82-5.08-7,.39-7,1.75a17.53,17.53,0,0,0-.2,2.36q0,8.3,1.17,21.43l1.37.2h1.35l.4.19a.17.17,0,0,1,.19-.19,34,34,0,0,1-1-6.43v-.4a1.36,1.36,0,0,1,1.55-1.55c.53,0,2.23,1.36,5.08,4.09Q21,85.3,21.7,85.3C22.35,84.38,22.86,83.93,23.25,83.93Z" fill="#553600"/><path d="M23.25,83.54v.39c-.39,0-.9.45-1.55,1.37q-.66,0-3.89-2.54C15,80,13.26,78.67,12.73,78.67a1.36,1.36,0,0,0-1.55,1.55v.4a34,34,0,0,0,1,6.43.17.17,0,0,0-.19.19l-.4-.19H10.21l-1.37-.2Q7.67,73.72,7.67,65.42a17.53,17.53,0,0,1,.2-2.36q0-1.37,7-1.75,6.82,0,6.82,5.08a6.92,6.92,0,0,1-3.51,6.23q-5.06,1.23-5.06,1.95v.59l.18,1A98,98,0,0,1,23.25,83.54Zm-5.44-16c-.35-2-1.58-2.93-3.71-2.93H12.55c-1.17,0-1.76.91-1.76,2.73V70.1c0,1,.45,1.55,1.36,1.55h.2Q17.81,69.93,17.81,67.56Z" fill="#e99000"/><path d="M14.1,64.63c2.13,0,3.36,1,3.71,2.93q0,2.37-5.46,4.09h-.2c-.91,0-1.36-.52-1.36-1.55V67.36c0-1.82.59-2.73,1.76-2.73Z" fill="#553600"/><path d="M124.53,29.39c1.82,4,3.67,7.9,5.84,11.69.83,1.43,1.49,1.71,3.15,1.12a20.72,20.72,0,0,1,22.67,6.54c2.83,3.56,3.48,6.85,1.87,9.52s-7.45,5.06-10.65,4.26a3.56,3.56,0,0,0-3.06.3,4.48,4.48,0,0,1-3.41.68c-4.56-1.41-9.37-2-13.66-4.26a5.31,5.31,0,0,1-2.72-2.6c-.89-2.53-2.7-2.68-4.93-2.58-2.54.12-5.09,0-7.64-.08-.17-1,.6-.95,1.19-1.07,2.67-.54,5.35-1.07,8-1.42A100.91,100.91,0,0,0,108.7,54L81.36,54c-1.71-1.22-1.22-2.55-.25-4,.59-.85,1.68-1.94.22-2.68a3.6,3.6,0,0,0-4.09.25c-1,.88,0,1.81.68,2.54,1.3,1.45,1.2,2.72-.38,3.86L50.19,54a110,110,0,0,0-11.93-2.41c2.51.37,5,.88,7.47,1.36.59.12,1.35.09,1.17,1.07-3,0-6,.15-9,.09a2.87,2.87,0,0,0-3,1.66c-2.07,3.5-5.19,5.57-9.43,5.36a2.68,2.68,0,0,0-2.18.71,4.92,4.92,0,0,1-4.22,1.58c-4.68-1.09-9.64,0-14.17-2.07C-.25,58.91-1.43,54.84,1.78,50a20.56,20.56,0,0,1,23.38-7.89c1.89.65,2.67.34,3.56-1.29,2-3.75,4-7.56,5.66-11.47,0-3.07,1.85-5.38,3.26-7.86s1.27-2.68-1.18-3.87a35.3,35.3,0,0,0-10-3.41c-.84-.13-2.14.14-2.13-1.41.68-2.4,2.84-2.95,4.77-3.61C35.85,7,42.87,6.62,49.88,6.54a20.22,20.22,0,0,0,8.36-1.8c14.83-6.64,29.65-6.24,44.27.8a9.14,9.14,0,0,0,4.16,1c7.11,0,14.22.24,21.13,2.11,2.48.68,5.21,1.15,6.63,3.79.56,1.77-.89,1.65-1.83,1.82a38.84,38.84,0,0,0-9.29,3c-3.48,1.56-3.62,1.94-1.55,5.07C123.2,24.44,124.65,26.61,124.53,29.39Z"/><path d="M124.53,29.39A30.3,30.3,0,0,0,120,20.84c-1.22-1.56-.79-2.31.71-3.1a35.69,35.69,0,0,1,12-4.2c.8-.1,1.7.06,1.77-1.13,1.11,1.64.34,3.1-.46,4.53a45.16,45.16,0,0,1-8,10.3C125.39,27.85,124.52,28.32,124.53,29.39Z" fill="#4c4c4c"/><path d="M24.35,12.84c2.48,1.32,5.48.83,7.93,2.26a5.16,5.16,0,0,0,.52.16c2.25.94,5.24,1.43,6.35,3.36,1.33,2.29-2,3.94-2.65,6.17a37.37,37.37,0,0,1-2.12,4.6c0-1.08-.84-1.55-1.47-2.16a45.07,45.07,0,0,1-8-10.35C24.23,15.63,23.44,14.35,24.35,12.84Z" fill="#4c4c4c"/><path d="M77.54,54c.68-1.43,1.37-2.76-.63-3.88a2.31,2.31,0,0,1-1-2.65c.37-1.28,1.49-1.12,2.48-1.17a10.29,10.29,0,0,1,1.36,0c1.13.09,2.57-.41,3.14,1s-.31,2.46-1.36,3.27c-1.43,1.1-.57,2.26-.18,3.42A10.44,10.44,0,0,1,77.54,54Z" fill="#4a4a4a"/><path d="M108.7,54c4-2,8.39-2.57,12.73-3.22.52-.08,1.45-.44,1.57.46s-.78,1-1.52,1.09A41.91,41.91,0,0,0,112,54,7,7,0,0,1,108.7,54Z" fill="#4a4a4a"/><path d="M46.9,54a42.87,42.87,0,0,0-9.27-1.68c-.68-.06-1.67.1-1.55-1,.1-.91,1-.65,1.56-.57,4.28.7,8.61,1.19,12.55,3.22A7,7,0,0,1,46.9,54Z" fill="#494949"/><path d="M102.46,24.79A14.94,14.94,0,0,1,116.17,34a4.53,4.53,0,0,1,0,3.68c-4,9.62-18.7,12.75-26.17,5.61-1.92-1.83-2.63-3.72-1.58-6.33,1.83-4.58,4.06-8.76,8.75-11A12.33,12.33,0,0,1,102.46,24.79Z" fill="#fec600"/><path d="M56.78,24.79a11.81,11.81,0,0,1,9,4,20.87,20.87,0,0,1,3.61,5.44c2.78,5.92,1.67,8.89-4.36,11.63-7.53,3.44-17.88-.06-21.83-7.31a5.14,5.14,0,0,1-.06-5.42C46.08,28.06,50.18,24.85,56.78,24.79Z" fill="#fec600"/><path d="M53.05,52.65,32.62,46.17C40.25,45.74,46.66,49.16,53.05,52.65Z" fill="#4a4a4a"/><path d="M106.4,52.27c6.25-3.27,12.48-6.57,19.91-6.12C119.53,47.73,113,50.23,106.4,52.27Z" fill="#494949"/><path d="M102.18,36.55a9.65,9.65,0,0,1-1.92,6.1c-2,2.49-4.68,2.42-6.61-.1-2.53-3.31-2.44-9.59.19-12.78,1.83-2.21,4.42-2.29,6.26-.09A10.06,10.06,0,0,1,102.18,36.55Z" fill="#010000"/><path d="M46.81,35.88A9.54,9.54,0,0,1,48.43,30c2-2.88,4.85-2.93,6.9-.15,2.35,3.18,2.36,9.17,0,12.35-2,2.79-4.91,2.77-6.91-.09A9.9,9.9,0,0,1,46.81,35.88Z" fill="#010000"/></svg>